<svg xmlns="http://www.w3.org/2000/svg" viewBox="0 0 891 657"><defs><style>.cls-1,.cls-10,.cls-13,.cls-15,.cls-17,.cls-19,.cls-20,.cls-9{fill:none;}.cls-1,.cls-20{stroke:#bcbdbc;stroke-width:3px;}.cls-1,.cls-10,.cls-13,.cls-15,.cls-17,.cls-20,.cls-9{stroke-miterlimit:10;}.cls-2{fill:#bcbdbc;}.cls-3{fill:#174172;}.cls-4{fill:#67b1e2;}.cls-5{fill:#fff;}.cls-6{fill:#9dd9dc;}.cls-7{fill:#522761;}.cls-8{fill:#bde3f5;}.cls-9{stroke:#bde3f5;}.cls-10,.cls-13,.cls-15,.cls-17,.cls-19,.cls-9{stroke-width:0.6px;}.cls-10{stroke:#522761;}.cls-11{fill:#ffc956;}.cls-12{fill:#124370;}.cls-13,.cls-19{stroke:#124370;}.cls-14{fill:#ffe090;}.cls-15{stroke:#fff;}.cls-16{fill:#d0b0d3;}.cls-17{stroke:#d0b0d3;}.cls-18{fill:#d0db99;}.cls-19{stroke-linecap:round;stroke-linejoin:round;}.cls-20{stroke-dasharray:8 8 8 8 8 8;}</style></defs><g id="ACH"><polyline class="cls-1" points="365.08 363.29 365.08 558.99 154.73 558.99"/><polygon class="cls-2" points="157.35 550.02 141.81 558.99 157.35 567.97 157.35 550.02"/><polyline class="cls-1" points="278.64 175.18 365.08 175.18 365.08 224.02"/><polygon class="cls-2" points="356.11 221.39 365.08 236.94 374.06 221.39 356.11 221.39"/><polyline class="cls-1" points="85.32 233.86 85.32 175.18 156.26 175.18"/><polygon class="cls-2" points="153.63 184.16 169.18 175.18 153.63 166.21 153.63 184.16"/><line class="cls-1" x1="85.32" y1="482.67" x2="85.32" y2="376.21"/><polygon class="cls-2" points="94.29 378.83 85.32 363.29 76.34 378.83 94.29 378.83"/><path class="cls-3" d="M47.48,37.72V51.93H65.34V37.72H67.6V70.08H65.34V53.9H47.48V70.08H45.23V37.72Z"/><path class="cls-3" d="M94.3,58.32c0,8.64-5.9,12.29-11,12.29-6,0-10.56-4.66-10.56-11.86,0-7.92,5.18-12.24,10.9-12.24C90,46.51,94.3,51.26,94.3,58.32ZM75,58.61c0,5.76,3.7,10.08,8.4,10.08S92,64.37,92,58.46c0-4.22-2.4-10.08-8.45-10.08C77.69,48.38,75,53.66,75,58.61Z"/><path class="cls-3" d="M98.45,47l3.84,13.1c.82,2.69,1.49,5,2,7.2h.14c.58-2.11,1.35-4.56,2.31-7.2L111.32,47h2.16l4.41,13c.91,2.78,1.63,5.13,2.26,7.29h.09c.48-2.16,1.2-4.46,2.07-7.25L126.44,47h2.35l-7.68,23h-2l-4.32-12.82a73.26,73.26,0,0,1-2.4-7.87h-.09a77.44,77.44,0,0,1-2.5,7.92l-4.61,12.77h-2L96.1,47Z"/><path class="cls-3" d="M147.94,58.75l-4,11.33H141.6l11.71-32.36h2.21l11.67,32.36h-2.35l-4.09-11.33ZM160,56.83,156.1,46c-.77-2.26-1.2-3.89-1.68-5.71h-.1c-.48,1.87-1,3.55-1.68,5.61l-4,10.9Z"/><path class="cls-3" d="M191.82,68.93a20,20,0,0,1-8.69,1.68c-7.82,0-15.31-5-15.31-16.52,0-9.6,6.19-16.89,16.37-16.89a16.42,16.42,0,0,1,7.53,1.44L191,40.56a15.38,15.38,0,0,0-6.72-1.39c-8.74,0-14.07,5.66-14.07,15,0,8.79,5,14.45,13.68,14.45a17,17,0,0,0,7.3-1.49Z"/><path class="cls-3" d="M198.06,37.72V51.93h17.86V37.72h2.26V70.08h-2.26V53.9H198.06V70.08h-2.25V37.72Z"/><path class="cls-3" d="M238.24,47l3.84,13.1c.81,2.69,1.49,5,2,7.2h.14c.58-2.11,1.35-4.56,2.31-7.2L251.1,47h2.16l4.42,13c.91,2.78,1.63,5.13,2.26,7.29H260c.48-2.16,1.2-4.46,2.07-7.25L266.22,47h2.36l-7.68,23h-2l-4.32-12.82a71.05,71.05,0,0,1-2.4-7.87h-.1a75,75,0,0,1-2.49,7.92L245,70.08h-2l-7.05-23Z"/><path class="cls-3" d="M291.73,58.32c0,8.64-5.91,12.29-11,12.29-6,0-10.57-4.66-10.57-11.86,0-7.92,5.19-12.24,10.9-12.24C287.41,46.51,291.73,51.26,291.73,58.32Zm-19.3.29c0,5.76,3.7,10.08,8.4,10.08s8.59-4.32,8.59-10.23c0-4.22-2.4-10.08-8.45-10.08C275.12,48.38,272.43,53.66,272.43,58.61Z"/><path class="cls-3" d="M296.64,54c0-2.3-.09-4.7-.19-6.91h2.11l.1,4.65h.1c1-2.88,3.4-5.18,6.57-5.18a5.75,5.75,0,0,1,.92.1v2.2a4.27,4.27,0,0,0-1.11-.09c-3.17,0-5.42,2.73-6.05,6.43a16.7,16.7,0,0,0-.19,2.21V70.08h-2.26Z"/><path class="cls-3" d="M312.16,58.13h.1c.58-.72,1.54-1.78,2.26-2.55L322.63,47h2.78l-9.31,9.55,10.61,13.49h-2.79L314.52,58l-2.36,2.5v9.6h-2.25V36h2.25Z"/><path class="cls-3" d="M329.78,67.06A10.27,10.27,0,0,0,335,68.64c3.65,0,5.38-2,5.38-4.37s-1.54-3.89-4.85-5.23c-3.79-1.44-5.86-3.51-5.86-6.29,0-3.31,2.6-6.24,7.11-6.24A9.12,9.12,0,0,1,341.83,48l-.91,1.87a7.52,7.52,0,0,0-4.56-1.39c-2.93,0-4.47,1.87-4.47,4,0,2.4,1.63,3.46,4.75,4.76,3.75,1.44,6,3.31,6,6.81,0,3.94-3.08,6.63-7.78,6.63A11.21,11.21,0,0,1,329,69Z"/><path class="cls-3" d="M347.81,52.75a1.94,1.94,0,0,1-1.87-2.11,2,2,0,0,1,2-2.21,2,2,0,0,1,1.92,2.21,2,2,0,0,1-2,2.11Zm0,17.86a2.17,2.17,0,1,1,2-2.16,2,2,0,0,1-2,2.16Z"/><rect class="cls-4" x="184.2" y="537.56" width="223.1" height="37.35"/><path class="cls-5" d="M81.18,417.21V415H83.1l.1,1h0a2.59,2.59,0,0,1,2.19-1.13c1.46,0,2.55,1,2.55,3v4.21H85.71v-4c0-.92-.32-1.54-1.12-1.54a1.18,1.18,0,0,0-1.12.82,1.52,1.52,0,0,0-.08.56V422H81.18Z"/><circle class="cls-6" cx="84.56" cy="290.12" r="43.2"/><rect class="cls-7" x="55.17" y="277.6" width="58.77" height="30.12"/><polygon class="cls-7" points="84.56 267.71 62.61 276.2 62.61 278.12 106.5 278.12 106.5 276.2 84.56 267.71"/><rect class="cls-8" x="62.61" y="284.89" width="4.57" height="16.56"/><rect class="cls-8" x="71.53" y="284.89" width="4.57" height="16.56"/><rect class="cls-8" x="93.01" y="284.89" width="4.57" height="16.56"/><rect class="cls-8" x="101.93" y="284.89" width="4.57" height="16.56"/><line class="cls-9" x1="62.61" y1="284.89" x2="106.5" y2="284.89"/><line class="cls-9" x1="62.61" y1="301.45" x2="106.5" y2="301.45"/><line class="cls-10" x1="64.9" y1="285.68" x2="64.9" y2="300.66"/><line class="cls-10" x1="73.82" y1="285.68" x2="73.82" y2="300.66"/><line class="cls-10" x1="95.3" y1="285.68" x2="95.3" y2="300.66"/><line class="cls-10" x1="104.22" y1="285.68" x2="104.22" y2="300.66"/><line class="cls-9" x1="59" y1="304.41" x2="110.12" y2="304.41"/><rect class="cls-8" x="79.91" y="296.13" width="9.29" height="5.31"/><line class="cls-9" x1="68.12" y1="277.6" x2="100.99" y2="277.6"/><circle class="cls-5" cx="84.56" cy="277.6" r="4.29"/><path class="cls-7" d="M85.86,279.46a1.6,1.6,0,0,1-1,.41v.36a.33.33,0,0,1-.32.34.33.33,0,0,1-.32-.34v-.38a2.4,2.4,0,0,1-1.17-.45.42.42,0,0,1-.19-.34.37.37,0,0,1,.37-.35.47.47,0,0,1,.26.1,1.76,1.76,0,0,0,1.11.38c.57,0,.89-.22.89-.63a.45.45,0,0,0-.23-.4,3.35,3.35,0,0,0-.86-.27c-1-.23-1.48-.57-1.48-1.3a1.14,1.14,0,0,1,.36-.84,1.63,1.63,0,0,1,.94-.42V275a.34.34,0,0,1,.32-.34.33.33,0,0,1,.32.34v.35a1.75,1.75,0,0,1,1,.37.35.35,0,0,1-.2.63.6.6,0,0,1-.28-.1,1.57,1.57,0,0,0-.83-.23c-.59,0-.84.26-.84.58a.45.45,0,0,0,.2.41,2.72,2.72,0,0,0,.73.23,3.13,3.13,0,0,1,1.25.49,1.06,1.06,0,0,1,.38.86A1.23,1.23,0,0,1,85.86,279.46Z"/><line class="cls-10" x1="84.56" y1="296.13" x2="84.56" y2="301.04"/><line class="cls-10" x1="48.09" y1="307.73" x2="121.02" y2="307.73"/><path class="cls-3" d="M58.46,341.07a19.12,19.12,0,0,1,3.15-.23,6,6,0,0,1,3.19.61,2.36,2.36,0,0,1,1.3,2.11,2.44,2.44,0,0,1-1.78,2.31v0a2.71,2.71,0,0,1,2.14,2.66,2.86,2.86,0,0,1-1.12,2.29c-.78.62-2.09,1-4.24,1a18.82,18.82,0,0,1-2.64-.16Zm2.42,4.13h.8c1.28,0,2-.53,2-1.33s-.63-1.25-1.73-1.25a7.1,7.1,0,0,0-1,.06Zm0,4.78a6.15,6.15,0,0,0,.94,0c1.11,0,2.08-.44,2.08-1.56s-1-1.52-2.19-1.52h-.83Z"/><path class="cls-3" d="M70.36,348.94l-.77,2.77H67.06l3.3-10.79h3.2l3.35,10.79H74.28l-.83-2.77Zm2.74-1.82-.68-2.29c-.19-.64-.38-1.44-.54-2.08h0c-.16.64-.32,1.46-.5,2.08l-.64,2.29Z"/><path class="cls-3" d="M78.15,351.71V340.92H81l2.24,4A31.18,31.18,0,0,1,85,348.57h0a40.05,40.05,0,0,1-.21-4.51v-3.14h2.25v10.79H84.52l-2.3-4.16a39.63,39.63,0,0,1-1.87-3.81l0,0c.06,1.42.09,2.94.09,4.7v3.25Z"/><path class="cls-3" d="M89.21,340.92h2.42v4.77h0c.25-.41.5-.8.74-1.18l2.45-3.59h3l-3.57,4.6L98,351.71H95.2l-2.65-4.66-.92,1.14v3.52H89.21Z"/><path class="cls-3" d="M104.78,348.94l-.77,2.77h-2.53l3.3-10.79H108l3.35,10.79H108.7l-.83-2.77Zm2.74-1.82-.68-2.29c-.19-.64-.38-1.44-.54-2.08h0c-.16.64-.32,1.46-.5,2.08l-.64,2.29Z"/><rect class="cls-4" x="42.77" y="145.35" width="83.57" height="59.66"/><path class="cls-5" d="M58.71,177.82l-.77,2.77H55.41l3.3-10.79h3.2l3.34,10.79H62.63l-.84-2.77ZM61.44,176l-.67-2.29c-.19-.64-.38-1.44-.54-2.08h0c-.15.64-.31,1.45-.49,2.08L59.06,176Z"/><path class="cls-5" d="M74.06,180.29a7,7,0,0,1-2.77.48c-3.73,0-5.65-2.34-5.65-5.41,0-3.69,2.63-5.73,5.89-5.73a6.25,6.25,0,0,1,2.66.48l-.5,1.93a5.19,5.19,0,0,0-2-.4,3.55,3.55,0,0,0,0,7.09,6.12,6.12,0,0,0,2-.35Z"/><path class="cls-5" d="M78,169.8V174h4V169.8h2.43v10.79H82v-4.51H78v4.51H75.53V169.8Z"/><path class="cls-5" d="M89.79,169.8h6.59v2H92.24v2.47h3.87v2H92.24v4.34H89.79Z"/><path class="cls-5" d="M100.32,170.59A1.22,1.22,0,0,1,99,171.8a1.23,1.23,0,1,1,0-2.45A1.22,1.22,0,0,1,100.32,170.59Zm-2.51,10v-7.83h2.43v7.83Z"/><path class="cls-5" d="M102.14,169.23h2.43v11.36h-2.43Z"/><path class="cls-5" d="M108.38,177.45c.08,1,1.07,1.49,2.21,1.49a6.86,6.86,0,0,0,2.16-.32l.32,1.65a7.74,7.74,0,0,1-2.84.5c-2.65,0-4.17-1.56-4.17-4a3.91,3.91,0,0,1,4-4.17c2.53,0,3.49,2,3.49,3.9a5.89,5.89,0,0,1-.08,1Zm2.86-1.66a1.41,1.41,0,0,0-1.37-1.59,1.6,1.6,0,0,0-1.51,1.59Z"/><rect class="cls-4" x="42.77" y="398.7" width="83.57" height="59.66"/><path class="cls-5" d="M67.1,416.7a21,21,0,0,1,3.09-.21,6.54,6.54,0,0,1,4.14,1.08A4.48,4.48,0,0,1,76,421.38a5.15,5.15,0,0,1-1.68,4.1,7.31,7.31,0,0,1-4.67,1.3,18.91,18.91,0,0,1-2.59-.15ZM69.39,425a3.84,3.84,0,0,0,.8.05c2.07,0,3.42-1.13,3.42-3.54a2.9,2.9,0,0,0-3.18-3.21,4.53,4.53,0,0,0-1,.09Z"/><path class="cls-5" d="M79.2,423.74c.07.94,1,1.39,2.07,1.39a6.27,6.27,0,0,0,2-.3l.3,1.55a7.21,7.21,0,0,1-2.65.46c-2.49,0-3.92-1.45-3.92-3.75a3.67,3.67,0,0,1,3.71-3.91c2.37,0,3.27,1.84,3.27,3.66a5.34,5.34,0,0,1-.08.9Zm2.68-1.56a1.33,1.33,0,0,0-1.29-1.49,1.5,1.5,0,0,0-1.41,1.49Z"/><path class="cls-5" d="M85.4,416h2.28v4.18h0a2.57,2.57,0,0,1,2.22-1c1.75,0,3,1.45,3,3.7,0,2.64-1.68,4-3.36,4a2.44,2.44,0,0,1-2.21-1.18h0l-.09,1H85.34c0-.48.06-1.37.06-2.19Zm2.28,7.53a1.64,1.64,0,0,0,0,.4A1.38,1.38,0,0,0,89.06,425c1,0,1.57-.75,1.57-2.07,0-1.14-.51-2-1.57-2a1.42,1.42,0,0,0-1.34,1.13,1.87,1.87,0,0,0,0,.42Z"/><path class="cls-5" d="M96.7,417.3a1.14,1.14,0,0,1-1.23,1.14,1.15,1.15,0,1,1,0-2.29A1.14,1.14,0,0,1,96.7,417.3Zm-2.35,9.38v-7.34h2.28v7.34Z"/><path class="cls-5" d="M101,417.35v2h1.64V421H101v2.66c0,.88.21,1.29.9,1.29a3.23,3.23,0,0,0,.68-.06v1.72a4.39,4.39,0,0,1-1.48.21,2.39,2.39,0,0,1-1.71-.64,3.05,3.05,0,0,1-.63-2.18v-3h-1v-1.68h1V418Z"/><path class="cls-5" d="M51.19,430.57v10.11h-2.3V430.57Z"/><path class="cls-5" d="M53.07,435.68c0-.91,0-1.69-.06-2.34h2l.11,1h0a2.68,2.68,0,0,1,2.27-1.17c1.5,0,2.62,1,2.62,3.15v4.35H57.75v-4.07c0-.94-.33-1.59-1.15-1.59a1.23,1.23,0,0,0-1.16.86,1.62,1.62,0,0,0-.09.57v4.23H53.07Z"/><path class="cls-5" d="M61.78,438.68a4.4,4.4,0,0,0,2,.56c.68,0,1-.24,1-.62s-.22-.55-1.08-.84c-1.52-.51-2.1-1.33-2.09-2.19,0-1.38,1.17-2.41,3-2.41a4.86,4.86,0,0,1,2.07.42l-.4,1.57a3.61,3.61,0,0,0-1.6-.42c-.55,0-.86.23-.86.6s.28.53,1.18.84c1.39.48,2,1.19,2,2.27,0,1.36-1.08,2.38-3.17,2.38a5.17,5.17,0,0,1-2.37-.52Z"/><path class="cls-5" d="M70.81,431.35v2h1.64V435H70.81v2.66c0,.88.21,1.29.9,1.29a3.23,3.23,0,0,0,.68-.06v1.72a4.39,4.39,0,0,1-1.48.21,2.39,2.39,0,0,1-1.71-.64,3.05,3.05,0,0,1-.63-2.18v-3h-1v-1.68h1V432Z"/><path class="cls-5" d="M73.84,435.76c0-1.08,0-1.79-.06-2.42h2l.07,1.35h.06a2.17,2.17,0,0,1,2-1.51,2.33,2.33,0,0,1,.48,0v2.16a2,2,0,0,0-.61-.08,1.47,1.47,0,0,0-1.56,1.16,2.67,2.67,0,0,0,0,.51v3.72H73.84Z"/><path class="cls-5" d="M86.35,438.32c0,1,0,1.74.06,2.36h-2l-.11-1h0a2.63,2.63,0,0,1-2.3,1.2c-1.48,0-2.58-.93-2.58-3.19v-4.31h2.3v4c0,1.06.34,1.71,1.14,1.71a1.21,1.21,0,0,0,1.21-1.29v-4.37h2.3Z"/><path class="cls-5" d="M93.64,440.5a5.51,5.51,0,0,1-2,.34,3.56,3.56,0,0,1-3.88-3.76c0-2.15,1.47-3.9,4.2-3.9a5.29,5.29,0,0,1,1.74.28l-.36,1.7a3.13,3.13,0,0,0-1.28-.23,2.06,2.06,0,0,0,0,4.11,3.17,3.17,0,0,0,1.3-.24Z"/><path class="cls-5" d="M97.64,431.35v2h1.64V435H97.64v2.66c0,.88.21,1.29.9,1.29a3.23,3.23,0,0,0,.68-.06v1.72a4.39,4.39,0,0,1-1.48.21A2.39,2.39,0,0,1,96,440.2a3.05,3.05,0,0,1-.63-2.18v-3h-1v-1.68h1V432Z"/><path class="cls-5" d="M103,431.3a1.14,1.14,0,0,1-1.23,1.14,1.15,1.15,0,1,1,0-2.29A1.14,1.14,0,0,1,103,431.3Zm-2.35,9.38v-7.34h2.28v7.34Z"/><path class="cls-5" d="M112,436.93a3.68,3.68,0,0,1-3.87,3.91,3.59,3.59,0,0,1-3.8-3.78,3.66,3.66,0,0,1,3.92-3.88A3.56,3.56,0,0,1,112,436.93Zm-5.31.07c0,1.26.52,2.21,1.5,2.21s1.45-.89,1.45-2.21c0-1.09-.42-2.2-1.45-2.2S106.66,435.92,106.66,437Z"/><path class="cls-5" d="M113.34,435.68c0-.91,0-1.69-.06-2.34h2l.1,1h0a2.67,2.67,0,0,1,2.26-1.17c1.5,0,2.63,1,2.63,3.15v4.35H118v-4.07c0-.94-.33-1.59-1.16-1.59a1.21,1.21,0,0,0-1.15.86,1.62,1.62,0,0,0-.09.57v4.23h-2.28Z"/><rect class="cls-4" x="321.61" y="398.7" width="83.57" height="59.66"/><path class="cls-5" d="M337.37,409.57a19.73,19.73,0,0,1,3.09-.21,6.48,6.48,0,0,1,4.14,1.08,4.47,4.47,0,0,1,1.71,3.81,5.13,5.13,0,0,1-1.68,4.09,7.25,7.25,0,0,1-4.67,1.31,20.7,20.7,0,0,1-2.59-.15Zm2.3,8.25a4.6,4.6,0,0,0,.79,0c2.07,0,3.42-1.12,3.42-3.54a2.9,2.9,0,0,0-3.18-3.21,5,5,0,0,0-1,.09Z"/><path class="cls-5" d="M349.47,416.6c.07.95,1,1.4,2.07,1.4a6.55,6.55,0,0,0,2-.3l.3,1.54a7.2,7.2,0,0,1-2.65.47c-2.49,0-3.92-1.46-3.92-3.75A3.68,3.68,0,0,1,351,412c2.37,0,3.27,1.85,3.27,3.66a5.23,5.23,0,0,1-.08.9Zm2.68-1.56a1.32,1.32,0,0,0-1.29-1.48,1.5,1.5,0,0,0-1.41,1.48Z"/><path class="cls-5" d="M355.67,408.89H358v4.19h0a2.58,2.58,0,0,1,2.22-1c1.75,0,3,1.46,3,3.71,0,2.64-1.68,4-3.36,4a2.45,2.45,0,0,1-2.21-1.19h0l-.09,1h-1.93c0-.48.06-1.36.06-2.19Zm2.28,7.53a1.73,1.73,0,0,0,0,.41,1.39,1.39,0,0,0,1.34,1.08c1,0,1.57-.75,1.57-2.07,0-1.14-.51-2-1.57-2a1.41,1.41,0,0,0-1.34,1.12,1.93,1.93,0,0,0,0,.42Z"/><path class="cls-5" d="M367,410.17a1.14,1.14,0,0,1-1.22,1.14,1.15,1.15,0,1,1,0-2.3A1.14,1.14,0,0,1,367,410.17Zm-2.35,9.37v-7.33h2.28v7.33Z"/><path class="cls-5" d="M371.23,410.21v2h1.64v1.68h-1.64v2.65c0,.89.21,1.29.9,1.29a2.68,2.68,0,0,0,.68-.06v1.73a4.39,4.39,0,0,1-1.48.21,2.35,2.35,0,0,1-1.71-.65,3,3,0,0,1-.63-2.17v-3h-1v-1.68h1v-1.38Z"/><path class="cls-5" d="M379.77,410.21v2h1.63v1.68h-1.63v2.65c0,.89.21,1.29.9,1.29a2.6,2.6,0,0,0,.67-.06l0,1.73a4.39,4.39,0,0,1-1.48.21,2.33,2.33,0,0,1-1.71-.65,3,3,0,0,1-.64-2.17v-3h-1v-1.68h1v-1.38Z"/><path class="cls-5" d="M389.92,415.79a3.68,3.68,0,0,1-3.87,3.92,3.59,3.59,0,0,1-3.79-3.78,3.66,3.66,0,0,1,3.91-3.89A3.57,3.57,0,0,1,389.92,415.79Zm-5.31.08c0,1.26.53,2.2,1.5,2.2s1.46-.88,1.46-2.2c0-1.1-.42-2.21-1.46-2.21S384.61,414.79,384.61,415.87Z"/><path class="cls-5" d="M334.62,433.26a6.42,6.42,0,0,1-2.59.45c-3.5,0-5.3-2.19-5.3-5.07,0-3.45,2.46-5.37,5.52-5.37a5.92,5.92,0,0,1,2.49.45l-.46,1.81a5.06,5.06,0,0,0-1.92-.37,3.32,3.32,0,0,0,0,6.64,5.74,5.74,0,0,0,1.91-.33Z"/><path class="cls-5" d="M342.57,431.19c0,1,0,1.74.06,2.35h-2l-.1-1h-.05a2.6,2.6,0,0,1-2.29,1.2c-1.49,0-2.58-.93-2.58-3.2v-4.3h2.29v3.94c0,1.07.35,1.71,1.14,1.71a1.22,1.22,0,0,0,1.14-.79,1.31,1.31,0,0,0,.08-.5v-4.36h2.29Z"/><path class="cls-5" d="M344.38,431.55a4.52,4.52,0,0,0,2,.55c.69,0,1-.24,1-.61s-.23-.56-1.08-.84c-1.52-.51-2.1-1.34-2.09-2.19,0-1.38,1.17-2.42,3-2.42a5,5,0,0,1,2.07.42L348.8,428a3.6,3.6,0,0,0-1.59-.42c-.55,0-.87.22-.87.6s.29.52,1.19.84c1.39.48,2,1.18,2,2.26,0,1.37-1.08,2.39-3.18,2.39a5.19,5.19,0,0,1-2.37-.53Z"/><path class="cls-5" d="M353.41,424.21v2H355v1.68h-1.63v2.65c0,.89.21,1.29.9,1.29a2.6,2.6,0,0,0,.67-.06l0,1.73a4.41,4.41,0,0,1-1.49.21,2.37,2.37,0,0,1-1.71-.65,3,3,0,0,1-.63-2.17v-3h-1v-1.68h1v-1.38Z"/><path class="cls-5" d="M363.56,429.79a3.68,3.68,0,0,1-3.87,3.92,3.59,3.59,0,0,1-3.79-3.78,3.66,3.66,0,0,1,3.91-3.89A3.57,3.57,0,0,1,363.56,429.79Zm-5.31.08c0,1.26.53,2.2,1.5,2.2s1.46-.88,1.46-2.2c0-1.1-.42-2.21-1.46-2.21S358.25,428.79,358.25,429.87Z"/><path class="cls-5" d="M364.93,428.55c0-.92,0-1.7-.06-2.34h1.92l.11,1h0a2.54,2.54,0,0,1,2.22-1.16,2.07,2.07,0,0,1,2,1.25h0a3.07,3.07,0,0,1,.95-.89,2.62,2.62,0,0,1,1.39-.36c1.41,0,2.48,1,2.48,3.18v4.32h-2.23v-4c0-1.06-.34-1.68-1.08-1.68a1.11,1.11,0,0,0-1,.8,1.85,1.85,0,0,0-.09.58v4.29h-2.22v-4.11c0-.93-.33-1.56-1.05-1.56a1.17,1.17,0,0,0-1.07.83,1.62,1.62,0,0,0-.09.57v4.27h-2.22Z"/><path class="cls-5" d="M379.57,430.6c.07.95,1,1.4,2.07,1.4a6.6,6.6,0,0,0,2-.3l.3,1.54a7.24,7.24,0,0,1-2.65.47c-2.49,0-3.92-1.46-3.92-3.75A3.68,3.68,0,0,1,381.1,426c2.36,0,3.27,1.85,3.27,3.66a5.23,5.23,0,0,1-.08.9Zm2.68-1.56a1.32,1.32,0,0,0-1.29-1.48,1.5,1.5,0,0,0-1.41,1.48Z"/><path class="cls-5" d="M385.77,428.62c0-1.08,0-1.78-.06-2.41h2l.08,1.35h.06a2.14,2.14,0,0,1,2-1.52,2.37,2.37,0,0,1,.48,0v2.16a2.59,2.59,0,0,0-.62-.07,1.47,1.47,0,0,0-1.56,1.15,2.71,2.71,0,0,0,0,.51v3.72h-2.28Z"/><path class="cls-5" d="M394.56,423.16a19.88,19.88,0,0,1-1.81,4l-1.37.14a23.36,23.36,0,0,0,1-4.05Z"/><path class="cls-5" d="M395,431.55a4.53,4.53,0,0,0,2,.55c.68,0,1-.24,1-.61s-.22-.56-1.08-.84c-1.51-.51-2.1-1.34-2.09-2.19,0-1.38,1.17-2.42,3-2.42a5,5,0,0,1,2.07.42l-.4,1.58a3.61,3.61,0,0,0-1.6-.42c-.55,0-.86.22-.86.6s.28.52,1.18.84c1.39.48,2,1.18,2,2.26,0,1.37-1.08,2.39-3.17,2.39a5.16,5.16,0,0,1-2.37-.53Z"/><path class="cls-5" d="M339.55,445l-.72,2.59h-2.37l3.09-10.11h3l3.14,10.11h-2.46l-.78-2.59Zm2.57-1.71-.63-2.15c-.18-.6-.36-1.35-.51-1.95h0c-.15.6-.3,1.37-.47,1.95l-.6,2.15Z"/><path class="cls-5" d="M352.22,447.36a5.47,5.47,0,0,1-2,.35,3.57,3.57,0,0,1-3.88-3.77c0-2.14,1.47-3.9,4.2-3.9a5.29,5.29,0,0,1,1.74.29l-.36,1.69a3.16,3.16,0,0,0-1.28-.22,1.89,1.89,0,0,0-2,2.05,1.91,1.91,0,0,0,2,2.06,3.17,3.17,0,0,0,1.3-.24Z"/><path class="cls-5" d="M358.86,447.36a5.47,5.47,0,0,1-2,.35,3.57,3.57,0,0,1-3.88-3.77c0-2.14,1.47-3.9,4.2-3.9a5.29,5.29,0,0,1,1.74.29l-.36,1.69a3.16,3.16,0,0,0-1.28-.22,1.89,1.89,0,0,0-2,2.05,1.91,1.91,0,0,0,2,2.06,3.17,3.17,0,0,0,1.3-.24Z"/><path class="cls-5" d="M367.24,443.79a3.68,3.68,0,0,1-3.87,3.92,3.59,3.59,0,0,1-3.79-3.78,3.66,3.66,0,0,1,3.91-3.89A3.57,3.57,0,0,1,367.24,443.79Zm-5.31.08c0,1.26.53,2.2,1.5,2.2s1.46-.88,1.46-2.2c0-1.1-.42-2.21-1.46-2.21S361.93,442.79,361.93,443.87Z"/><path class="cls-5" d="M375.54,445.19c0,1,0,1.74.06,2.35h-2l-.1-1h0a2.6,2.6,0,0,1-2.29,1.2c-1.49,0-2.58-.93-2.58-3.2v-4.3h2.29v3.94c0,1.07.35,1.71,1.14,1.71a1.22,1.22,0,0,0,1.14-.79,1.31,1.31,0,0,0,.08-.5v-4.36h2.29Z"/><path class="cls-5" d="M377.35,442.55c0-.92,0-1.7-.06-2.34h2l.1,1h.05a2.69,2.69,0,0,1,2.26-1.17c1.5,0,2.63,1,2.63,3.15v4.35H382v-4.06c0-1-.33-1.59-1.16-1.59a1.21,1.21,0,0,0-1.15.85,1.62,1.62,0,0,0-.09.57v4.23h-2.28Z"/><path class="cls-5" d="M388.55,438.21v2h1.63v1.68h-1.63v2.65c0,.89.21,1.29.9,1.29a2.6,2.6,0,0,0,.67-.06l0,1.73a4.41,4.41,0,0,1-1.49.21,2.37,2.37,0,0,1-1.71-.65,3,3,0,0,1-.63-2.17v-3h-1v-1.68h1v-1.38Z"/><rect class="cls-4" x="321.61" y="145.35" width="83.57" height="59.66"/><path class="cls-5" d="M337.55,177.82l-.77,2.77h-2.53l3.3-10.79h3.2l3.34,10.79h-2.62l-.83-2.77Zm2.74-1.82-.68-2.29c-.19-.64-.38-1.44-.54-2.08h0c-.16.64-.32,1.45-.5,2.08L337.9,176Z"/><path class="cls-5" d="M352.9,180.29a6.94,6.94,0,0,1-2.77.48c-3.73,0-5.65-2.34-5.65-5.41,0-3.69,2.63-5.73,5.89-5.73a6.25,6.25,0,0,1,2.66.48l-.5,1.93a5.18,5.18,0,0,0-2-.4,3.55,3.55,0,0,0,0,7.09,6.12,6.12,0,0,0,2-.35Z"/><path class="cls-5" d="M356.82,169.8V174h4V169.8h2.43v10.79h-2.43v-4.51h-4v4.51h-2.45V169.8Z"/><path class="cls-5" d="M368.63,169.8h6.59v2h-4.14v2.47H375v2h-3.87v4.34h-2.45Z"/><path class="cls-5" d="M379.16,170.59a1.22,1.22,0,0,1-1.31,1.21,1.23,1.23,0,1,1,0-2.45A1.22,1.22,0,0,1,379.16,170.59Zm-2.51,10v-7.83h2.43v7.83Z"/><path class="cls-5" d="M381,169.23h2.43v11.36H381Z"/><path class="cls-5" d="M387.22,177.45c.08,1,1.07,1.49,2.21,1.49a6.86,6.86,0,0,0,2.16-.32l.32,1.65a7.73,7.73,0,0,1-2.83.5c-2.66,0-4.18-1.56-4.18-4a3.91,3.91,0,0,1,4-4.17c2.53,0,3.49,2,3.49,3.9a5.89,5.89,0,0,1-.08,1Zm2.86-1.66a1.41,1.41,0,0,0-1.37-1.59,1.6,1.6,0,0,0-1.51,1.59Z"/><circle class="cls-6" cx="363.4" cy="290.12" r="43.2"/><rect class="cls-7" x="334.01" y="277.6" width="58.77" height="30.12"/><polygon class="cls-7" points="363.4 267.71 341.45 276.2 341.45 278.12 385.34 278.12 385.34 276.2 363.4 267.71"/><rect class="cls-8" x="341.45" y="284.89" width="4.57" height="16.56"/><rect class="cls-8" x="350.37" y="284.89" width="4.57" height="16.56"/><rect class="cls-8" x="371.85" y="284.89" width="4.57" height="16.56"/><rect class="cls-8" x="380.77" y="284.89" width="4.57" height="16.56"/><line class="cls-9" x1="341.45" y1="284.89" x2="385.34" y2="284.89"/><line class="cls-9" x1="341.45" y1="301.45" x2="385.34" y2="301.45"/><line class="cls-10" x1="343.74" y1="285.68" x2="343.74" y2="300.66"/><line class="cls-10" x1="352.66" y1="285.68" x2="352.66" y2="300.66"/><line class="cls-10" x1="374.14" y1="285.68" x2="374.14" y2="300.66"/><line class="cls-10" x1="383.06" y1="285.68" x2="383.06" y2="300.66"/><line class="cls-9" x1="337.84" y1="304.41" x2="388.96" y2="304.41"/><rect class="cls-8" x="358.76" y="296.13" width="9.29" height="5.31"/><line class="cls-9" x1="346.96" y1="277.6" x2="379.83" y2="277.6"/><circle class="cls-5" cx="363.4" cy="277.6" r="4.29"/><path class="cls-7" d="M364.7,279.46a1.6,1.6,0,0,1-1,.41v.36a.33.33,0,0,1-.32.34.33.33,0,0,1-.32-.34v-.38a2.4,2.4,0,0,1-1.17-.45.44.44,0,0,1-.19-.34.37.37,0,0,1,.37-.35.44.44,0,0,1,.26.1,1.76,1.76,0,0,0,1.11.38c.57,0,.89-.22.89-.63a.45.45,0,0,0-.23-.4,3.38,3.38,0,0,0-.85-.27c-1.05-.23-1.48-.57-1.48-1.3a1.13,1.13,0,0,1,.35-.84,1.63,1.63,0,0,1,.94-.42V275a.34.34,0,0,1,.32-.34.33.33,0,0,1,.32.34v.35a1.82,1.82,0,0,1,1,.37.36.36,0,0,1-.21.63.56.56,0,0,1-.27-.1,1.6,1.6,0,0,0-.84-.23c-.59,0-.84.26-.84.58a.45.45,0,0,0,.2.41,2.72,2.72,0,0,0,.73.23,3.13,3.13,0,0,1,1.25.49,1.06,1.06,0,0,1,.38.86A1.23,1.23,0,0,1,364.7,279.46Z"/><line class="cls-10" x1="363.4" y1="296.13" x2="363.4" y2="301.04"/><line class="cls-10" x1="326.93" y1="307.73" x2="399.86" y2="307.73"/><path class="cls-3" d="M335,341.07a19.12,19.12,0,0,1,3.15-.23,6,6,0,0,1,3.19.61,2.36,2.36,0,0,1,1.3,2.11,2.44,2.44,0,0,1-1.78,2.31v0a2.71,2.71,0,0,1,2.14,2.66,2.86,2.86,0,0,1-1.12,2.29c-.78.62-2.09,1-4.24,1a18.94,18.94,0,0,1-2.64-.16Zm2.42,4.13h.8c1.28,0,2-.53,2-1.33s-.63-1.25-1.73-1.25a7.1,7.1,0,0,0-1,.06Zm0,4.78a6.15,6.15,0,0,0,.94,0c1.11,0,2.08-.44,2.08-1.56s-1-1.52-2.19-1.52h-.83Z"/><path class="cls-3" d="M346.85,348.94l-.77,2.77h-2.53l3.3-10.79h3.2l3.35,10.79h-2.63l-.83-2.77Zm2.74-1.82-.68-2.29c-.19-.64-.38-1.44-.54-2.08h0c-.16.64-.32,1.46-.5,2.08l-.64,2.29Z"/><path class="cls-3" d="M354.64,351.71V340.92h2.85l2.24,4a31.25,31.25,0,0,1,1.77,3.69h0a40.05,40.05,0,0,1-.21-4.51v-3.14h2.25v10.79H361l-2.3-4.16a39.63,39.63,0,0,1-1.87-3.81l0,0c.06,1.42.09,2.94.09,4.7v3.25Z"/><path class="cls-3" d="M365.7,340.92h2.42v4.77h.05c.24-.41.49-.8.73-1.18l2.45-3.59h3l-3.57,4.6,3.77,6.19h-2.85L369,347.05l-.92,1.14v3.52H365.7Z"/><path class="cls-3" d="M378.76,341.07a19,19,0,0,1,3.15-.23,6,6,0,0,1,3.18.61,2.34,2.34,0,0,1,1.3,2.11,2.44,2.44,0,0,1-1.78,2.31v0a2.7,2.7,0,0,1,2.15,2.66,2.89,2.89,0,0,1-1.12,2.29c-.79.62-2.1,1-4.24,1a18.82,18.82,0,0,1-2.64-.16Zm2.41,4.13h.8c1.28,0,2-.53,2-1.33s-.62-1.25-1.73-1.25a7.1,7.1,0,0,0-1,.06Zm0,4.78a6.22,6.22,0,0,0,.95,0c1.1,0,2.08-.44,2.08-1.56s-1-1.52-2.2-1.52h-.83Z"/><line class="cls-1" x1="226.16" y1="332.4" x2="226.16" y2="359.34"/><polygon class="cls-2" points="217.18 356.72 226.16 372.26 235.13 356.72 217.18 356.72"/><rect class="cls-4" x="183" y="277.08" width="83.57" height="59.66"/><path class="cls-5" d="M188.71,302.7a5.88,5.88,0,0,0,2.53.63c1,0,1.61-.44,1.61-1.1s-.48-1-1.7-1.42c-1.68-.59-2.77-1.52-2.77-3,0-1.72,1.44-3,3.82-3a6.19,6.19,0,0,1,2.58.51l-.51,1.84a4.83,4.83,0,0,0-2.11-.48c-1,0-1.47.45-1.47,1s.57.93,1.87,1.42c1.79.66,2.63,1.59,2.63,3,0,1.69-1.31,3.15-4.08,3.15a6.67,6.67,0,0,1-2.87-.63Z"/><path class="cls-5" d="M198.38,302.11c.07.95,1,1.4,2.07,1.4a6.55,6.55,0,0,0,2-.3l.3,1.54a7.2,7.2,0,0,1-2.65.47c-2.49,0-3.92-1.46-3.92-3.75a3.68,3.68,0,0,1,3.71-3.92c2.37,0,3.27,1.85,3.27,3.66a5.23,5.23,0,0,1-.08.9Zm2.68-1.56a1.32,1.32,0,0,0-1.29-1.48,1.5,1.5,0,0,0-1.41,1.48Z"/><path class="cls-5" d="M207.1,295.72v2h1.64v1.68H207.1v2.65c0,.89.21,1.29.9,1.29a2.68,2.68,0,0,0,.68-.06V305a4.39,4.39,0,0,1-1.48.21,2.35,2.35,0,0,1-1.71-.65,3,3,0,0,1-.63-2.17v-3h-1v-1.68h1v-1.38Z"/><path class="cls-5" d="M212.76,295.72v2h1.63v1.68h-1.63v2.65c0,.89.21,1.29.9,1.29a2.6,2.6,0,0,0,.67-.06l0,1.73a4.41,4.41,0,0,1-1.49.21,2.37,2.37,0,0,1-1.71-.65,3,3,0,0,1-.63-2.17v-3h-1v-1.68h1v-1.38Z"/><path class="cls-5" d="M215.81,294.4h2.28v10.65h-2.28Z"/><path class="cls-5" d="M221.66,302.11c.08.95,1,1.4,2.07,1.4a6.67,6.67,0,0,0,2-.3l.3,1.54a7.26,7.26,0,0,1-2.66.47c-2.49,0-3.91-1.46-3.91-3.75a3.67,3.67,0,0,1,3.7-3.92c2.37,0,3.27,1.85,3.27,3.66a5.5,5.5,0,0,1-.07.9Zm2.69-1.56a1.32,1.32,0,0,0-1.29-1.48,1.5,1.5,0,0,0-1.41,1.48Z"/><path class="cls-5" d="M227.86,300.06c0-.92,0-1.7-.06-2.34h1.92l.11,1h0a2.54,2.54,0,0,1,2.22-1.16,2.07,2.07,0,0,1,2,1.25h0a3.07,3.07,0,0,1,1-.89,2.62,2.62,0,0,1,1.39-.36c1.41,0,2.48,1,2.48,3.18v4.32h-2.22v-4c0-1.06-.35-1.68-1.08-1.68a1.11,1.11,0,0,0-1.05.8,1.85,1.85,0,0,0-.09.58v4.29h-2.22v-4.11c0-.93-.33-1.56-1-1.56a1.17,1.17,0,0,0-1.07.83,1.62,1.62,0,0,0-.09.57v4.27h-2.22Z"/><path class="cls-5" d="M242.5,302.11c.07.95,1,1.4,2.07,1.4a6.55,6.55,0,0,0,2-.3l.3,1.54a7.2,7.2,0,0,1-2.65.47c-2.49,0-3.92-1.46-3.92-3.75a3.68,3.68,0,0,1,3.71-3.92c2.37,0,3.27,1.85,3.27,3.66a5.23,5.23,0,0,1-.08.9Zm2.68-1.56a1.32,1.32,0,0,0-1.29-1.48,1.5,1.5,0,0,0-1.41,1.48Z"/><path class="cls-5" d="M248.7,300.06c0-.92,0-1.7-.06-2.34h2l.1,1h.05a2.69,2.69,0,0,1,2.26-1.17c1.5,0,2.63,1,2.63,3.15v4.35h-2.28V301c0-.95-.33-1.59-1.16-1.59a1.21,1.21,0,0,0-1.15.85,1.62,1.62,0,0,0-.09.57v4.23H248.7Z"/><path class="cls-5" d="M259.9,295.72v2h1.63v1.68H259.9v2.65c0,.89.21,1.29.9,1.29a2.6,2.6,0,0,0,.67-.06l0,1.73a4.41,4.41,0,0,1-1.49.21,2.37,2.37,0,0,1-1.71-.65,3,3,0,0,1-.63-2.17v-3h-1v-1.68h1v-1.38Z"/><path class="cls-5" d="M191.42,308.94v10.11h-2.29V308.94Z"/><path class="cls-5" d="M193.31,314.06c0-.92,0-1.7-.06-2.34h2l.1,1h0a2.69,2.69,0,0,1,2.26-1.17c1.5,0,2.63,1,2.63,3.15v4.35H198V315c0-.95-.33-1.59-1.16-1.59a1.21,1.21,0,0,0-1.15.85,1.62,1.62,0,0,0-.09.57v4.23h-2.28Z"/><path class="cls-5" d="M202,317.06a4.53,4.53,0,0,0,2,.55c.69,0,1-.24,1-.61s-.22-.56-1.08-.84c-1.51-.51-2.1-1.34-2.08-2.19,0-1.38,1.17-2.42,3-2.42a5,5,0,0,1,2.07.42l-.4,1.58a3.6,3.6,0,0,0-1.59-.42c-.56,0-.87.22-.87.6s.28.52,1.18.84c1.4.48,2,1.18,2,2.26,0,1.37-1.08,2.39-3.18,2.39a5.16,5.16,0,0,1-2.37-.53Z"/><path class="cls-5" d="M211.05,309.72v2h1.63v1.68h-1.63v2.65c0,.89.21,1.29.9,1.29a2.6,2.6,0,0,0,.67-.06l0,1.73a4.41,4.41,0,0,1-1.49.21,2.37,2.37,0,0,1-1.71-.65,3,3,0,0,1-.63-2.17v-3h-1v-1.68h1v-1.38Z"/><path class="cls-5" d="M214.08,314.13c0-1.08,0-1.78-.06-2.41h2l.08,1.35h.06a2.14,2.14,0,0,1,2-1.52,2.37,2.37,0,0,1,.48,0v2.16a2.59,2.59,0,0,0-.62-.07,1.47,1.47,0,0,0-1.56,1.15,2.71,2.71,0,0,0,0,.51v3.72h-2.28Z"/><path class="cls-5" d="M226.58,316.7c0,1,0,1.74.06,2.35h-2l-.1-1h-.05a2.6,2.6,0,0,1-2.29,1.2c-1.49,0-2.58-.93-2.58-3.2v-4.3h2.29v3.94c0,1.07.35,1.71,1.14,1.71a1.22,1.22,0,0,0,1.14-.79,1.31,1.31,0,0,0,.08-.5v-4.36h2.29Z"/><path class="cls-5" d="M233.88,318.87a5.51,5.51,0,0,1-2,.35,3.58,3.58,0,0,1-3.89-3.77c0-2.14,1.47-3.9,4.2-3.9a5.29,5.29,0,0,1,1.74.29l-.36,1.69a3.11,3.11,0,0,0-1.27-.22,2.06,2.06,0,0,0,0,4.11,3.26,3.26,0,0,0,1.31-.24Z"/><path class="cls-5" d="M237.88,309.72v2h1.63v1.68h-1.63v2.65c0,.89.21,1.29.9,1.29a2.6,2.6,0,0,0,.67-.06l0,1.73a4.41,4.41,0,0,1-1.49.21,2.37,2.37,0,0,1-1.71-.65,3,3,0,0,1-.63-2.17v-3h-1v-1.68h1v-1.38Z"/><path class="cls-5" d="M243.25,309.68a1.14,1.14,0,0,1-1.23,1.14,1.15,1.15,0,1,1,0-2.3A1.15,1.15,0,0,1,243.25,309.68Zm-2.36,9.37v-7.33h2.28v7.33Z"/><path class="cls-5" d="M252.2,315.3a3.68,3.68,0,0,1-3.87,3.92,3.59,3.59,0,0,1-3.79-3.78,3.66,3.66,0,0,1,3.91-3.89A3.57,3.57,0,0,1,252.2,315.3Zm-5.31.08c0,1.26.53,2.2,1.5,2.2s1.46-.88,1.46-2.2c0-1.1-.42-2.21-1.46-2.21S246.89,314.3,246.89,315.38Z"/><path class="cls-5" d="M253.57,314.06c0-.92,0-1.7-.06-2.34h2l.11,1h0a2.7,2.7,0,0,1,2.27-1.17c1.5,0,2.62,1,2.62,3.15v4.35h-2.28V315c0-.95-.33-1.59-1.15-1.59a1.22,1.22,0,0,0-1.16.85,1.62,1.62,0,0,0-.09.57v4.23h-2.28Z"/><circle class="cls-11" cx="224.79" cy="174.76" r="43.2"/><circle class="cls-12" cx="224.79" cy="174.77" r="12.16"/><circle class="cls-12" cx="202.94" cy="154.66" r="4.37"/><circle class="cls-12" cx="245.76" cy="196.17" r="4.37"/><circle class="cls-12" cx="203.1" cy="196.17" r="6.7"/><circle class="cls-12" cx="249.04" cy="150.53" r="3.04"/><polyline class="cls-13" points="203.8 153.79 224.77 174.76 249.89 149.65"/><polyline class="cls-13" points="245.93 196.01 224.68 174.76 203.27 196.17"/><circle class="cls-14" cx="224.79" cy="174.77" r="6.29"/><circle class="cls-15" cx="224.79" cy="174.77" r="16.33"/><path class="cls-3" d="M193.46,473.43h6.59v2h-4.14v2.46h3.87v2h-3.87v4.34h-2.45Z"/><path class="cls-3" d="M208.07,479.65h-4v2.56h4.43v2h-6.88V473.43h6.66v2H204.1v2.24h4Z"/><path class="cls-3" d="M210.27,473.57a22.37,22.37,0,0,1,3.3-.22A6.94,6.94,0,0,1,218,474.5a4.78,4.78,0,0,1,1.83,4.07,5.48,5.48,0,0,1-1.79,4.37,7.79,7.79,0,0,1-5,1.39,21.1,21.1,0,0,1-2.77-.16Zm2.45,8.81a5.37,5.37,0,0,0,.85,0c2.21,0,3.65-1.2,3.65-3.77a3.1,3.1,0,0,0-3.4-3.43,4.87,4.87,0,0,0-1.1.1Z"/><path class="cls-3" d="M227.81,479.65h-4v2.56h4.43v2h-6.88V473.43h6.66v2h-4.21v2.24h4Z"/><path class="cls-3" d="M230,473.57a21.2,21.2,0,0,1,3.25-.22,5.5,5.5,0,0,1,3.49.85,2.72,2.72,0,0,1,1,2.25,2.87,2.87,0,0,1-1.9,2.66v.05a2.73,2.73,0,0,1,1.44,2,30.44,30.44,0,0,0,.88,3.05h-2.5a13.77,13.77,0,0,1-.75-2.52c-.29-1.34-.75-1.71-1.75-1.73h-.73v4.25H230Zm2.42,4.64h1c1.21,0,1.93-.6,1.93-1.55s-.67-1.49-1.79-1.5a5.32,5.32,0,0,0-1.1.08Z"/><path class="cls-3" d="M242.26,481.45l-.76,2.77H239l3.29-10.79h3.2l3.35,10.79h-2.62l-.84-2.77Zm2.74-1.83-.67-2.29c-.19-.64-.39-1.44-.55-2.08h0c-.16.64-.32,1.46-.49,2.08l-.64,2.29Z"/><path class="cls-3" d="M250.06,473.43h2.45v8.74h4.29v2.05h-6.74Z"/><path class="cls-3" d="M172.38,490.57a21.29,21.29,0,0,1,3.25-.22,5.5,5.5,0,0,1,3.49.85,2.72,2.72,0,0,1,1,2.25,2.86,2.86,0,0,1-1.9,2.66v.05a2.7,2.7,0,0,1,1.44,2,30.44,30.44,0,0,0,.88,3.05H178a14.67,14.67,0,0,1-.75-2.52c-.29-1.34-.75-1.71-1.74-1.73h-.74v4.25h-2.42Zm2.42,4.64h1c1.22,0,1.94-.6,1.94-1.55s-.68-1.49-1.8-1.5a5.32,5.32,0,0,0-1.1.08Z"/><path class="cls-3" d="M188.34,496.65h-4v2.56h4.43v2h-6.88V490.43h6.66v2h-4.21v2.24h4Z"/><path class="cls-3" d="M190.48,498.7a6.21,6.21,0,0,0,2.71.68c1.12,0,1.71-.47,1.71-1.17s-.51-1.06-1.81-1.52c-1.79-.63-3-1.62-3-3.19,0-1.84,1.54-3.25,4.08-3.25a6.59,6.59,0,0,1,2.76.55l-.55,2a5.23,5.23,0,0,0-2.25-.51c-1.06,0-1.57.48-1.57,1s.6,1,2,1.52c1.9.71,2.8,1.7,2.8,3.22,0,1.81-1.4,3.36-4.36,3.36a6.93,6.93,0,0,1-3-.67Z"/><path class="cls-3" d="M205.38,496.65h-4v2.56h4.44v2H199V490.43h6.66v2h-4.21v2.24h4Z"/><path class="cls-3" d="M207.58,490.57a21.39,21.39,0,0,1,3.25-.22,5.5,5.5,0,0,1,3.49.85,2.72,2.72,0,0,1,1,2.25,2.86,2.86,0,0,1-1.9,2.66v.05a2.7,2.7,0,0,1,1.44,2c.34,1.22.67,2.63.88,3.05h-2.5a14.67,14.67,0,0,1-.75-2.52c-.29-1.34-.75-1.71-1.74-1.73H210v4.25h-2.42Zm2.42,4.64h1c1.22,0,1.94-.6,1.94-1.55s-.68-1.49-1.8-1.5a5.39,5.39,0,0,0-1.1.08Z"/><path class="cls-3" d="M219.38,501.22l-3.46-10.79h2.67l1.32,4.56c.37,1.28.7,2.51,1,3.86h0c.27-1.3.6-2.58,1-3.81l1.38-4.61h2.59l-3.63,10.79Z"/><path class="cls-3" d="M233.38,496.65h-4v2.56h4.44v2H227V490.43h6.66v2h-4.21v2.24h4Z"/><path class="cls-3" d="M238.74,490.57a19.31,19.31,0,0,1,3.15-.22,5.93,5.93,0,0,1,3.19.61,2.35,2.35,0,0,1,1.3,2.11,2.44,2.44,0,0,1-1.78,2.3v0a2.69,2.69,0,0,1,2.14,2.65,2.87,2.87,0,0,1-1.12,2.29c-.78.63-2.09,1-4.24,1a18.82,18.82,0,0,1-2.64-.16Zm2.42,4.13h.8c1.28,0,2-.53,2-1.33s-.63-1.25-1.73-1.25a6.69,6.69,0,0,0-1,.07Zm0,4.79a8.18,8.18,0,0,0,.94,0c1.11,0,2.08-.43,2.08-1.55s-1-1.52-2.19-1.52h-.83Z"/><path class="cls-3" d="M250.64,498.45l-.77,2.77h-2.53l3.3-10.79h3.2l3.35,10.79h-2.63l-.83-2.77Zm2.74-1.83-.68-2.29c-.19-.64-.38-1.44-.54-2.08h0c-.16.64-.32,1.46-.5,2.08l-.64,2.29Z"/><path class="cls-3" d="M258.43,501.22V490.43h2.85l2.24,3.95a31.32,31.32,0,0,1,1.76,3.7h.05a40.17,40.17,0,0,1-.21-4.51v-3.14h2.24v10.79H264.8l-2.3-4.17a40.68,40.68,0,0,1-1.88-3.8h0c.06,1.43.09,2.95.09,4.71v3.25Z"/><path class="cls-3" d="M269.49,490.43h2.42v4.77h0c.24-.42.5-.8.74-1.19l2.45-3.58h3L274.56,495l3.76,6.2h-2.84l-2.65-4.66-.92,1.13v3.53h-2.42Z"/><path class="cls-3" d="M199.55,99.36a27.21,27.21,0,0,1,4.12-.28c2.56,0,4.22.46,5.52,1.44a6,6,0,0,1,2.28,5.09,6.84,6.84,0,0,1-2.24,5.46c-1.42,1.18-3.58,1.74-6.22,1.74a26.4,26.4,0,0,1-3.46-.2Zm3.06,11a5.61,5.61,0,0,0,1.06.06c2.76,0,4.56-1.5,4.56-4.72,0-2.81-1.62-4.29-4.24-4.29a6.34,6.34,0,0,0-1.38.12Z"/><path class="cls-3" d="M221.45,107h-5v3.2H222v2.5h-8.6V99.18h8.32v2.5h-5.26v2.81h5Z"/><path class="cls-3" d="M224.19,99.36a24.15,24.15,0,0,1,3.93-.28,7.46,7.46,0,0,1,4,.76,2.93,2.93,0,0,1,1.62,2.64,3,3,0,0,1-2.22,2.89v0a3.37,3.37,0,0,1,2.68,3.32,3.59,3.59,0,0,1-1.4,2.86c-1,.78-2.62,1.22-5.3,1.22a23.58,23.58,0,0,1-3.3-.2Zm3,5.17h1c1.6,0,2.46-.66,2.46-1.67s-.78-1.56-2.16-1.56a8.22,8.22,0,0,0-1.3.08Zm0,6a9.62,9.62,0,0,0,1.18,0c1.38,0,2.6-.54,2.6-1.94s-1.22-1.9-2.74-1.9h-1Z"/><path class="cls-3" d="M239.27,99.18v13.49h-3.06V99.18Z"/><path class="cls-3" d="M244.31,101.74h-3.62V99.18h10.36v2.56h-3.67v10.93h-3.07Z"/><path class="cls-3" d="M646.71,112.29a8.6,8.6,0,0,1-3.46.6c-4.66,0-7.06-2.92-7.06-6.76,0-4.61,3.28-7.17,7.36-7.17a8,8,0,0,1,3.33.6l-.63,2.42a6.58,6.58,0,0,0-2.56-.5c-2.42,0-4.3,1.46-4.3,4.47a4,4,0,0,0,4.32,4.4,7.62,7.62,0,0,0,2.54-.44Z"/><path class="cls-3" d="M648.54,99.36a26.78,26.78,0,0,1,4.06-.28c2,0,3.4.3,4.36,1.06A3.42,3.42,0,0,1,658.2,103a3.58,3.58,0,0,1-2.38,3.33v.06a3.4,3.4,0,0,1,1.8,2.52c.42,1.52.84,3.28,1.1,3.8H655.6a17.43,17.43,0,0,1-.94-3.14c-.36-1.68-.94-2.14-2.18-2.16h-.92v5.3h-3Zm3,5.81h1.2c1.52,0,2.42-.76,2.42-1.94s-.84-1.87-2.24-1.89a7.61,7.61,0,0,0-1.38.1Z"/><path class="cls-3" d="M668.46,107h-5v3.2H669v2.5h-8.6V99.18h8.32v2.5H663.5v2.81h5Z"/><path class="cls-3" d="M671.19,99.36a27.21,27.21,0,0,1,4.12-.28c2.56,0,4.22.46,5.52,1.44a6,6,0,0,1,2.28,5.09,6.84,6.84,0,0,1-2.24,5.46c-1.42,1.18-3.58,1.74-6.22,1.74a26.4,26.4,0,0,1-3.46-.2Zm3.06,11a5.61,5.61,0,0,0,1.06.06c2.76,0,4.56-1.5,4.56-4.72,0-2.81-1.62-4.29-4.24-4.29a6.34,6.34,0,0,0-1.38.12Z"/><path class="cls-3" d="M688.16,99.18v13.49H685.1V99.18Z"/><path class="cls-3" d="M693.2,101.74h-3.62V99.18h10.36v2.56h-3.68v10.93H693.2Z"/><circle class="cls-16" cx="224.79" cy="422.56" r="43.2"/><rect class="cls-12" x="197.1" y="434.23" width="55.38" height="3.93"/><rect class="cls-12" x="200.7" y="430.31" width="48.18" height="3.93"/><rect class="cls-12" x="201.58" y="413.26" width="4.95" height="17.05"/><rect class="cls-12" x="211.18" y="413.26" width="4.95" height="17.05"/><rect class="cls-12" x="200.7" y="428.98" width="6.7" height="1.33"/><rect class="cls-12" x="210.3" y="428.98" width="6.7" height="1.33"/><rect class="cls-12" x="200.7" y="413.26" width="6.7" height="1.33"/><rect class="cls-12" x="210.3" y="413.26" width="6.7" height="1.33"/><rect class="cls-12" x="233.46" y="413.26" width="4.95" height="17.05"/><rect class="cls-12" x="243.06" y="413.26" width="4.95" height="17.05"/><rect class="cls-12" x="232.58" y="428.98" width="6.7" height="1.33"/><rect class="cls-12" x="242.18" y="428.98" width="6.7" height="1.33"/><rect class="cls-12" x="232.58" y="413.26" width="6.7" height="1.33"/><rect class="cls-12" x="242.18" y="413.26" width="6.7" height="1.33"/><line class="cls-17" x1="210.3" y1="434.23" x2="239.28" y2="434.23"/><line class="cls-17" x1="204.05" y1="415.88" x2="204.05" y2="427.68"/><line class="cls-17" x1="213.65" y1="415.88" x2="213.65" y2="427.68"/><line class="cls-17" x1="235.93" y1="415.88" x2="235.93" y2="427.68"/><line class="cls-17" x1="245.53" y1="415.88" x2="245.53" y2="427.68"/><polygon class="cls-12" points="224.79 400.12 197.1 410.84 197.1 413.26 252.48 413.26 252.48 410.84 224.79 400.12"/><circle class="cls-16" cx="224.79" cy="406.69" r="4.29"/><path class="cls-12" d="M226.1,408.54a1.57,1.57,0,0,1-1,.41v.37a.32.32,0,0,1-.32.34.34.34,0,0,1-.31-.34v-.38a2.46,2.46,0,0,1-1.17-.45.45.45,0,0,1-.19-.35.35.35,0,0,1,.36-.34.43.43,0,0,1,.27.1,1.73,1.73,0,0,0,1.11.37c.56,0,.89-.22.89-.62a.43.43,0,0,0-.24-.4,2.83,2.83,0,0,0-.85-.28c-1.05-.22-1.48-.57-1.48-1.3a1.12,1.12,0,0,1,.36-.84,1.51,1.51,0,0,1,.94-.41v-.36a.33.33,0,0,1,.31-.34.32.32,0,0,1,.32.34v.35a1.9,1.9,0,0,1,1,.36.36.36,0,0,1-.21.63.54.54,0,0,1-.27-.09,1.52,1.52,0,0,0-.83-.24c-.6,0-.85.26-.85.58a.47.47,0,0,0,.2.42,3.27,3.27,0,0,0,.74.23,3,3,0,0,1,1.25.49,1,1,0,0,1,.37.86A1.19,1.19,0,0,1,226.1,408.54Z"/><rect class="cls-12" x="220.53" y="421.78" width="8.53" height="8.53"/><line class="cls-17" x1="224.79" y1="421.78" x2="224.79" y2="430.31"/><path class="cls-12" d="M228.45,418.13V420h-7.32v-1.84h7.32m.6-.6h-8.52v3h8.52v-3Z"/><line class="cls-13" x1="191.92" y1="438.16" x2="257.67" y2="438.16"/><path class="cls-3" d="M59.3,588a19.94,19.94,0,0,1,3.3-.22,5.15,5.15,0,0,1,3.3.86,3.14,3.14,0,0,1,1.15,2.5,3.46,3.46,0,0,1-1,2.56,5,5,0,0,1-3.51,1.13,6.67,6.67,0,0,1-.83,0v3.85H59.3Zm2.42,4.9a3.7,3.7,0,0,0,.82.06c1.29,0,2.09-.65,2.09-1.76s-.68-1.58-1.9-1.58a4.16,4.16,0,0,0-1,.09Z"/><path class="cls-3" d="M78.4,593.17c0,3.54-2.15,5.68-5.3,5.68S68,596.43,68,593.36c0-3.23,2.06-5.65,5.25-5.65S78.4,590.19,78.4,593.17Zm-7.8.14c0,2.11,1,3.6,2.63,3.6s2.59-1.57,2.59-3.66-.93-3.6-2.61-3.6S70.6,591.21,70.6,593.31Z"/><path class="cls-3" d="M81.44,598.67l-2.56-10.78h2.61l.81,4.43c.24,1.3.47,2.69.64,3.78h0c.18-1.17.44-2.47.71-3.8l.91-4.41h2.59l.87,4.54c.24,1.27.41,2.42.57,3.62h0c.16-1.2.4-2.47.62-3.75l.88-4.41h2.48l-2.78,10.78H87.22L86.3,594c-.2-1.09-.38-2.09-.51-3.33h0c-.19,1.22-.37,2.24-.62,3.33l-1,4.64Z"/><path class="cls-3" d="M100.23,594.11h-4v2.56h4.43v2H93.82V587.89h6.65v2h-4.2v2.24h4Z"/><path class="cls-3" d="M102.44,588a21.2,21.2,0,0,1,3.25-.22,5.57,5.57,0,0,1,3.49.84,2.76,2.76,0,0,1,1,2.26,2.87,2.87,0,0,1-1.91,2.66v0a2.68,2.68,0,0,1,1.44,2c.34,1.22.68,2.63.88,3h-2.49a14.12,14.12,0,0,1-.76-2.51c-.28-1.34-.75-1.71-1.74-1.73h-.74v4.24h-2.41Zm2.41,4.64h1c1.22,0,1.94-.61,1.94-1.55s-.67-1.49-1.79-1.51a6.44,6.44,0,0,0-1.11.08Z"/><path class="cls-3" d="M56.81,615.37a6.88,6.88,0,0,1-2.76.48c-3.73,0-5.65-2.34-5.65-5.41,0-3.68,2.62-5.73,5.89-5.73a6.4,6.4,0,0,1,2.65.48l-.49,1.94a5.27,5.27,0,0,0-2.05-.4,3.55,3.55,0,0,0,0,7.09,5.92,5.92,0,0,0,2-.36Z"/><path class="cls-3" d="M67.89,610.17c0,3.54-2.15,5.68-5.3,5.68s-5.07-2.42-5.07-5.49c0-3.23,2.06-5.65,5.25-5.65S67.89,607.19,67.89,610.17Zm-7.8.14c0,2.11,1,3.6,2.63,3.6s2.59-1.57,2.59-3.66-.93-3.6-2.61-3.6S60.09,608.21,60.09,610.31Z"/><path class="cls-3" d="M78.54,611.54c-.05-1.29-.1-2.86-.1-4.43h0c-.34,1.38-.79,2.91-1.2,4.18l-1.32,4.21H74l-1.15-4.16c-.36-1.28-.73-2.82-1-4.23h0c-.07,1.46-.11,3.12-.2,4.47l-.19,4.09H69.18l.68-10.78h3.25l1.06,3.6c.34,1.23.67,2.59.91,3.85h0c.3-1.24.67-2.67,1-3.87l1.16-3.58h3.18l.59,10.78H78.7Z"/><path class="cls-3" d="M83,605a19.85,19.85,0,0,1,3.3-.22,5.17,5.17,0,0,1,3.3.86,3.14,3.14,0,0,1,1.15,2.5,3.46,3.46,0,0,1-1,2.56,5,5,0,0,1-3.51,1.13,6.57,6.57,0,0,1-.83,0v3.85H83Zm2.42,4.9a3.65,3.65,0,0,0,.82.06c1.29,0,2.09-.65,2.09-1.76s-.69-1.58-1.9-1.58a4.16,4.16,0,0,0-1,.09Z"/><path class="cls-3" d="M93.92,612.91l-.76,2.76H90.63l3.29-10.78h3.21l3.34,10.78H97.85L97,612.91Zm2.74-1.83L96,608.79c-.19-.64-.38-1.44-.54-2.08h0c-.16.64-.32,1.46-.49,2.08l-.64,2.29Z"/><path class="cls-3" d="M101.72,615.67V604.89h2.85l2.24,4a31.32,31.32,0,0,1,1.76,3.7h.05a40.23,40.23,0,0,1-.21-4.52v-3.13h2.24v10.78h-2.56l-2.3-4.16a37.47,37.47,0,0,1-1.88-3.81l0,0c.07,1.42.1,2.94.1,4.7v3.25Z"/><path class="cls-3" d="M115.19,615.67v-4.41l-3.41-6.37h2.78l1.11,2.59c.33.78.56,1.36.83,2.06h0c.24-.67.5-1.29.82-2.06l1.09-2.59h2.73l-3.55,6.29v4.49Z"/><circle class="cls-18" cx="84.69" cy="536.8" r="43.2"/><line class="cls-19" x1="56.76" y1="564.26" x2="112.61" y2="564.26"/><polyline class="cls-19" points="97.34 552.17 70.09 564.26 78.49 512.06 90.89 512.06 99.29 564.26 72.04 552.17"/><polygon class="cls-19" points="102.5 527.43 66.88 527.43 78.49 512.06 90.89 512.06 102.5 527.43"/><polygon class="cls-19" points="104.9 552.17 64.48 552.17 74.51 536.8 94.87 536.8 104.9 552.17"/><line class="cls-19" x1="64.48" y1="552.17" x2="64.48" y2="555.76"/><line class="cls-19" x1="104.9" y1="552.17" x2="104.9" y2="555.76"/><line class="cls-19" x1="66.88" y1="527.43" x2="66.88" y2="531.03"/><line class="cls-19" x1="102.5" y1="527.43" x2="102.5" y2="531.03"/><line class="cls-19" x1="74.51" y1="536.8" x2="93.36" y2="527.43"/><line class="cls-19" x1="94.75" y1="536.8" x2="75.89" y2="527.43"/><rect class="cls-12" x="74.27" y="536.68" width="20.73" height="2.22"/><rect class="cls-12" x="74.27" y="536.68" width="20.73" height="2.22"/><rect class="cls-12" x="78.45" y="512.04" width="12.67" height="2.22"/><line class="cls-15" x1="64.7" y1="530.6" x2="45.82" y2="530.6"/><line class="cls-15" x1="62.3" y1="555.89" x2="49.42" y2="555.89"/><line class="cls-15" x1="104.62" y1="530.6" x2="123.5" y2="530.6"/><line class="cls-15" x1="107.02" y1="555.89" x2="119.9" y2="555.89"/><path class="cls-5" d="M230.31,550.66a19.82,19.82,0,0,1,3.09-.21,6.46,6.46,0,0,1,4.14,1.08,4.47,4.47,0,0,1,1.71,3.81,5.1,5.1,0,0,1-1.68,4.09,7.2,7.2,0,0,1-4.66,1.31,20.76,20.76,0,0,1-2.6-.15Zm2.3,8.25a4.66,4.66,0,0,0,.79,0c2.07,0,3.42-1.12,3.42-3.54a2.9,2.9,0,0,0-3.18-3.21,5,5,0,0,0-1,.09Z"/><path class="cls-5" d="M242.41,557.69c.07.95,1,1.4,2.07,1.4a6.55,6.55,0,0,0,2-.3l.3,1.54a7.2,7.2,0,0,1-2.65.47c-2.49,0-3.92-1.46-3.92-3.75a3.68,3.68,0,0,1,3.71-3.92c2.37,0,3.27,1.85,3.27,3.66a5.23,5.23,0,0,1-.08.9Zm2.68-1.56a1.32,1.32,0,0,0-1.29-1.48,1.5,1.5,0,0,0-1.41,1.48Z"/><path class="cls-5" d="M248.61,550h2.28v4.19h0a2.58,2.58,0,0,1,2.22-1c1.75,0,3,1.46,3,3.71,0,2.64-1.68,4-3.36,4a2.45,2.45,0,0,1-2.21-1.19h0l-.09,1h-1.93c0-.48.06-1.36.06-2.19Zm2.28,7.53a1.73,1.73,0,0,0,0,.41,1.39,1.39,0,0,0,1.34,1.08c1,0,1.57-.75,1.57-2.07,0-1.14-.51-2-1.57-2a1.41,1.41,0,0,0-1.34,1.12,1.93,1.93,0,0,0,0,.42Z"/><path class="cls-5" d="M259.92,551.26a1.14,1.14,0,0,1-1.23,1.14,1.15,1.15,0,1,1,0-2.3A1.15,1.15,0,0,1,259.92,551.26Zm-2.36,9.37V553.3h2.28v7.33Z"/><path class="cls-5" d="M264.18,551.3v2h1.63V555h-1.63v2.65c0,.89.21,1.29.9,1.29a2.6,2.6,0,0,0,.67-.06l0,1.73a4.41,4.41,0,0,1-1.49.21,2.37,2.37,0,0,1-1.71-.65,3,3,0,0,1-.63-2.17v-3h-1V553.3h1v-1.38Z"/><path class="cls-5" d="M272.59,558l-.72,2.59H269.5l3.09-10.11h3l3.14,10.11h-2.46l-.78-2.59Zm2.57-1.71-.63-2.15c-.18-.6-.36-1.35-.51-1.95h0c-.15.6-.3,1.37-.47,1.95l-.6,2.15Z"/><path class="cls-5" d="M286.65,558.28c0,1,0,1.74.06,2.35h-2l-.1-1h-.05a2.6,2.6,0,0,1-2.29,1.2c-1.49,0-2.58-.93-2.58-3.2v-4.3H282v3.94c0,1.07.35,1.71,1.14,1.71a1.22,1.22,0,0,0,1.14-.79,1.31,1.31,0,0,0,.08-.5V553.3h2.29Z"/><path class="cls-5" d="M291,551.3v2h1.63V555H291v2.65c0,.89.21,1.29.9,1.29a2.6,2.6,0,0,0,.67-.06l0,1.73a4.41,4.41,0,0,1-1.49.21,2.37,2.37,0,0,1-1.71-.65,3,3,0,0,1-.63-2.17v-3h-1V553.3h1v-1.38Z"/><path class="cls-5" d="M294.07,550h2.28v4.19h0a2.52,2.52,0,0,1,.9-.75,2.57,2.57,0,0,1,1.18-.29c1.46,0,2.57,1,2.57,3.21v4.29h-2.28v-4c0-1-.33-1.62-1.19-1.62a1.22,1.22,0,0,0-1.14.79,1.46,1.46,0,0,0-.07.51v4.35h-2.28Z"/><path class="cls-5" d="M310.06,556.88a3.68,3.68,0,0,1-3.87,3.92A3.59,3.59,0,0,1,302.4,557a3.66,3.66,0,0,1,3.91-3.89A3.57,3.57,0,0,1,310.06,556.88Zm-5.31.08c0,1.26.53,2.2,1.5,2.2s1.46-.88,1.46-2.2c0-1.1-.42-2.21-1.46-2.21S304.75,555.88,304.75,557Z"/><path class="cls-5" d="M311.43,555.71c0-1.08,0-1.78-.06-2.41h2l.08,1.35h.06a2.14,2.14,0,0,1,2-1.52,2.37,2.37,0,0,1,.48,0v2.16a2.59,2.59,0,0,0-.62-.07,1.47,1.47,0,0,0-1.56,1.15,2.71,2.71,0,0,0,0,.51v3.72h-2.28Z"/><path class="cls-5" d="M319.36,551.26a1.14,1.14,0,0,1-1.23,1.14,1.15,1.15,0,1,1,0-2.3A1.15,1.15,0,0,1,319.36,551.26ZM317,560.63V553.3h2.29v7.33Z"/><path class="cls-5" d="M320.54,559.33l2.31-2.9c.42-.49.75-.85,1.17-1.3v0h-3.23v-1.8h6v1.36l-2.2,2.78c-.41.48-.78.94-1.2,1.35v0h3.52v1.81h-6.37Z"/><path class="cls-5" d="M334.38,558.85a12,12,0,0,0,.1,1.78h-2.05l-.14-.73h0a2.66,2.66,0,0,1-2.1.9,2.25,2.25,0,0,1-2.37-2.25c0-1.91,1.71-2.82,4.3-2.81v-.1c0-.39-.2-.95-1.33-.95a4.18,4.18,0,0,0-2,.56l-.42-1.47a6,6,0,0,1,2.85-.65c2.45,0,3.23,1.44,3.23,3.17Zm-2.22-1.68c-1.2,0-2.13.27-2.13,1.15a.82.82,0,0,0,.9.87,1.23,1.23,0,0,0,1.18-.84,1.6,1.6,0,0,0,.05-.39Z"/><path class="cls-5" d="M338.62,551.3v2h1.64V555h-1.64v2.65c0,.89.21,1.29.9,1.29a2.68,2.68,0,0,0,.68-.06v1.73a4.39,4.39,0,0,1-1.48.21,2.35,2.35,0,0,1-1.71-.65,3,3,0,0,1-.63-2.17v-3h-1V553.3h1v-1.38Z"/><path class="cls-5" d="M344,551.26a1.14,1.14,0,0,1-1.23,1.14,1.15,1.15,0,1,1,0-2.3A1.15,1.15,0,0,1,344,551.26Zm-2.36,9.37V553.3h2.29v7.33Z"/><path class="cls-5" d="M352.94,556.88a3.68,3.68,0,0,1-3.87,3.92,3.59,3.59,0,0,1-3.79-3.78,3.66,3.66,0,0,1,3.91-3.89A3.57,3.57,0,0,1,352.94,556.88Zm-5.31.08c0,1.26.53,2.2,1.5,2.2s1.46-.88,1.46-2.2c0-1.1-.42-2.21-1.46-2.21S347.63,555.88,347.63,557Z"/><path class="cls-5" d="M354.31,555.64c0-.92,0-1.7-.06-2.34h2l.11,1h0a2.7,2.7,0,0,1,2.27-1.17c1.5,0,2.62,1,2.62,3.15v4.35H359v-4.06c0-1-.33-1.59-1.15-1.59a1.22,1.22,0,0,0-1.16.85,1.62,1.62,0,0,0-.09.57v4.23h-2.28Z"/><polyline class="cls-1" points="808.16 363.29 808.16 558.99 597.8 558.99"/><polygon class="cls-2" points="600.43 550.02 584.88 558.99 600.43 567.97 600.43 550.02"/><polyline class="cls-1" points="721.72 175.18 808.16 175.18 808.16 224.02"/><polygon class="cls-2" points="799.18 221.39 808.16 236.94 817.13 221.39 799.18 221.39"/><polyline class="cls-1" points="528.39 233.86 528.39 175.18 599.33 175.18"/><polygon class="cls-2" points="596.71 184.16 612.25 175.18 596.71 166.21 596.71 184.16"/><line class="cls-1" x1="528.4" y1="482.67" x2="528.4" y2="376.21"/><polygon class="cls-2" points="537.37 378.83 528.39 363.29 519.42 378.83 537.37 378.83"/><path class="cls-5" d="M524.25,417.21V415h1.92l.1,1h0a2.61,2.61,0,0,1,2.2-1.13c1.45,0,2.54,1,2.54,3v4.21h-2.22v-4c0-.92-.32-1.54-1.12-1.54a1.17,1.17,0,0,0-1.12.82,1.77,1.77,0,0,0-.09.56V422h-2.21Z"/><circle class="cls-6" cx="527.63" cy="290.12" r="43.2"/><rect class="cls-7" x="498.25" y="277.6" width="58.77" height="30.12"/><polygon class="cls-7" points="527.63 267.71 505.69 276.2 505.69 278.12 549.58 278.12 549.58 276.2 527.63 267.71"/><rect class="cls-8" x="505.69" y="284.89" width="4.57" height="16.56"/><rect class="cls-8" x="514.61" y="284.89" width="4.57" height="16.56"/><rect class="cls-8" x="536.09" y="284.89" width="4.57" height="16.56"/><rect class="cls-8" x="545.01" y="284.89" width="4.57" height="16.56"/><line class="cls-9" x1="505.69" y1="284.89" x2="549.58" y2="284.89"/><line class="cls-9" x1="505.69" y1="301.45" x2="549.58" y2="301.45"/><line class="cls-10" x1="507.97" y1="285.68" x2="507.97" y2="300.66"/><line class="cls-10" x1="516.89" y1="285.68" x2="516.89" y2="300.66"/><line class="cls-10" x1="538.37" y1="285.68" x2="538.37" y2="300.66"/><line class="cls-10" x1="547.29" y1="285.68" x2="547.29" y2="300.66"/><line class="cls-9" x1="502.07" y1="304.41" x2="553.19" y2="304.41"/><rect class="cls-8" x="522.99" y="296.13" width="9.29" height="5.31"/><line class="cls-9" x1="511.2" y1="277.6" x2="544.07" y2="277.6"/><circle class="cls-5" cx="527.63" cy="277.6" r="4.29"/><path class="cls-7" d="M528.94,279.46a1.6,1.6,0,0,1-1,.41v.36a.32.32,0,0,1-.31.34.33.33,0,0,1-.32-.34v-.38a2.36,2.36,0,0,1-1.17-.45.42.42,0,0,1-.19-.34.36.36,0,0,1,.36-.35.5.5,0,0,1,.27.1,1.76,1.76,0,0,0,1.11.38c.56,0,.89-.22.89-.63a.44.44,0,0,0-.24-.4,3.24,3.24,0,0,0-.85-.27c-1-.23-1.48-.57-1.48-1.3a1.1,1.1,0,0,1,.36-.84,1.58,1.58,0,0,1,.94-.42V275a.34.34,0,0,1,.32-.34.32.32,0,0,1,.31.34v.35a1.79,1.79,0,0,1,1,.37.36.36,0,0,1-.21.63.56.56,0,0,1-.27-.1,1.6,1.6,0,0,0-.83-.23c-.6,0-.85.26-.85.58a.44.44,0,0,0,.21.41,2.6,2.6,0,0,0,.73.23,3.19,3.19,0,0,1,1.25.49,1.06,1.06,0,0,1,.38.86A1.23,1.23,0,0,1,528.94,279.46Z"/><line class="cls-10" x1="527.63" y1="296.13" x2="527.63" y2="301.04"/><line class="cls-10" x1="491.17" y1="307.73" x2="564.1" y2="307.73"/><path class="cls-3" d="M501.54,341.07a19,19,0,0,1,3.15-.23,6,6,0,0,1,3.19.61,2.35,2.35,0,0,1,1.29,2.11,2.44,2.44,0,0,1-1.77,2.31v0a2.71,2.71,0,0,1,2.14,2.66,2.89,2.89,0,0,1-1.12,2.29c-.78.62-2.1,1-4.24,1a18.82,18.82,0,0,1-2.64-.16ZM504,345.2h.8c1.29,0,2-.53,2-1.33s-.62-1.25-1.73-1.25a7.21,7.21,0,0,0-1,.06Zm0,4.78a6.22,6.22,0,0,0,.95,0c1.1,0,2.08-.44,2.08-1.56s-1-1.52-2.19-1.52H504Z"/><path class="cls-3" d="M513.44,348.94l-.77,2.77h-2.53l3.3-10.79h3.2L520,351.71h-2.62l-.84-2.77Zm2.73-1.82-.67-2.29c-.19-.64-.38-1.44-.54-2.08h0c-.16.64-.32,1.46-.49,2.08l-.64,2.29Z"/><path class="cls-3" d="M521.23,351.71V340.92h2.85l2.24,4a31.18,31.18,0,0,1,1.76,3.69h0a40.05,40.05,0,0,1-.21-4.51v-3.14h2.24v10.79H527.6l-2.3-4.16a39.68,39.68,0,0,1-1.88-3.81l0,0c.06,1.42.09,2.94.09,4.7v3.25Z"/><path class="cls-3" d="M532.29,340.92h2.41v4.77h0c.24-.41.5-.8.74-1.18l2.45-3.59h3l-3.57,4.6,3.76,6.19h-2.85l-2.64-4.66-.93,1.14v3.52h-2.41Z"/><path class="cls-3" d="M547.86,348.94l-.77,2.77h-2.53l3.3-10.79h3.2l3.34,10.79h-2.62l-.84-2.77Zm2.73-1.82-.67-2.29c-.19-.64-.38-1.44-.54-2.08h0c-.16.64-.32,1.46-.49,2.08l-.64,2.29Z"/><rect class="cls-4" x="485.85" y="145.35" width="83.57" height="59.66"/><path class="cls-5" d="M501.78,177.82l-.77,2.77h-2.52l3.29-10.79H505l3.35,10.79H505.7l-.83-2.77Zm2.74-1.82-.67-2.29c-.19-.64-.39-1.44-.55-2.08h0c-.16.64-.32,1.45-.5,2.08l-.64,2.29Z"/><path class="cls-5" d="M517.14,180.29a7,7,0,0,1-2.77.48c-3.73,0-5.65-2.34-5.65-5.41,0-3.69,2.62-5.73,5.89-5.73a6.24,6.24,0,0,1,2.65.48l-.49,1.93a5.27,5.27,0,0,0-2-.4,3.55,3.55,0,0,0,0,7.09,6.16,6.16,0,0,0,2-.35Z"/><path class="cls-5" d="M521.06,169.8V174h4V169.8h2.43v10.79h-2.43v-4.51h-4v4.51h-2.45V169.8Z"/><path class="cls-5" d="M532.86,169.8h6.6v2h-4.15v2.47h3.88v2h-3.88v4.34h-2.45Z"/><path class="cls-5" d="M543.4,170.59a1.22,1.22,0,0,1-1.32,1.21,1.23,1.23,0,1,1,0-2.45A1.23,1.23,0,0,1,543.4,170.59Zm-2.52,10v-7.83h2.44v7.83Z"/><path class="cls-5" d="M545.21,169.23h2.43v11.36h-2.43Z"/><path class="cls-5" d="M551.45,177.45c.08,1,1.08,1.49,2.21,1.49a6.77,6.77,0,0,0,2.16-.32l.32,1.65a7.69,7.69,0,0,1-2.83.5c-2.66,0-4.18-1.56-4.18-4a3.92,3.92,0,0,1,4-4.17c2.53,0,3.49,2,3.49,3.9a5.89,5.89,0,0,1-.08,1Zm2.87-1.66a1.42,1.42,0,0,0-1.38-1.59,1.6,1.6,0,0,0-1.5,1.59Z"/><rect class="cls-4" x="485.85" y="398.7" width="83.57" height="59.66"/><path class="cls-5" d="M515.64,426.39a6.48,6.48,0,0,1-2.6.45c-3.49,0-5.29-2.19-5.29-5.07,0-3.45,2.46-5.37,5.52-5.37a6,6,0,0,1,2.49.45l-.47,1.82a4.82,4.82,0,0,0-1.92-.38,3.33,3.33,0,0,0,0,6.65,5.68,5.68,0,0,0,1.9-.33Z"/><path class="cls-5" d="M516.84,421.76c0-1.08,0-1.79-.06-2.42h2l.07,1.35h.06a2.15,2.15,0,0,1,2-1.51,2.37,2.37,0,0,1,.48,0v2.16a2.12,2.12,0,0,0-.62-.08,1.45,1.45,0,0,0-1.55,1.16,2.05,2.05,0,0,0,0,.51v3.72h-2.28Z"/><path class="cls-5" d="M524.26,423.74c.07.94,1,1.39,2.07,1.39a6.27,6.27,0,0,0,2-.3l.3,1.55a7.21,7.21,0,0,1-2.65.46c-2.49,0-3.92-1.45-3.92-3.75a3.67,3.67,0,0,1,3.71-3.91c2.37,0,3.27,1.84,3.27,3.66a5.34,5.34,0,0,1-.08.9Zm2.68-1.56a1.32,1.32,0,0,0-1.29-1.49,1.48,1.48,0,0,0-1.4,1.49Z"/><path class="cls-5" d="M537.59,416v8.46c0,.82,0,1.69.06,2.19h-2l-.1-1.08h0a2.57,2.57,0,0,1-2.3,1.24c-1.74,0-3.13-1.48-3.13-3.76,0-2.48,1.53-3.9,3.28-3.9a2.24,2.24,0,0,1,1.94.82h0v-4Zm-2.28,6.42c0-.12,0-.29,0-.41a1.38,1.38,0,0,0-1.34-1.12c-1,0-1.57.93-1.57,2.08s.61,2,1.56,2a1.34,1.34,0,0,0,1.32-1.1,2.12,2.12,0,0,0,.06-.52Z"/><path class="cls-5" d="M541.74,417.3a1.14,1.14,0,0,1-1.23,1.14,1.15,1.15,0,1,1,0-2.29A1.14,1.14,0,0,1,541.74,417.3Zm-2.35,9.38v-7.34h2.28v7.34Z"/><path class="cls-5" d="M546,417.35v2h1.64V421H546v2.66c0,.88.21,1.29.9,1.29a3.23,3.23,0,0,0,.68-.06v1.72a4.39,4.39,0,0,1-1.48.21,2.39,2.39,0,0,1-1.71-.64,3.05,3.05,0,0,1-.63-2.18v-3h-1v-1.68h1V418Z"/><path class="cls-5" d="M494.26,430.57v10.11H492V430.57Z"/><path class="cls-5" d="M496.15,435.68c0-.91,0-1.69-.06-2.34h2l.1,1h.05a2.68,2.68,0,0,1,2.27-1.17c1.5,0,2.62,1,2.62,3.15v4.35h-2.28v-4.07c0-.94-.33-1.59-1.16-1.59a1.21,1.21,0,0,0-1.15.86,1.62,1.62,0,0,0-.09.57v4.23h-2.28Z"/><path class="cls-5" d="M504.86,438.68a4.39,4.39,0,0,0,2,.56c.69,0,1-.24,1-.62s-.23-.55-1.08-.84c-1.52-.51-2.1-1.33-2.09-2.19,0-1.38,1.17-2.41,3-2.41a4.86,4.86,0,0,1,2.07.42l-.41,1.57a3.6,3.6,0,0,0-1.59-.42c-.55,0-.87.23-.87.6s.29.53,1.19.84c1.39.48,2,1.19,2,2.27,0,1.36-1.08,2.38-3.18,2.38a5.2,5.2,0,0,1-2.37-.52Z"/><path class="cls-5" d="M513.89,431.35v2h1.63V435h-1.63v2.66c0,.88.21,1.29.9,1.29a3.13,3.13,0,0,0,.67-.06l0,1.72a4.41,4.41,0,0,1-1.49.21,2.41,2.41,0,0,1-1.71-.64,3.05,3.05,0,0,1-.63-2.18v-3h-1v-1.68h1V432Z"/><path class="cls-5" d="M516.92,435.76c0-1.08,0-1.79-.06-2.42h2l.08,1.35H519a2.15,2.15,0,0,1,2-1.51,2.37,2.37,0,0,1,.48,0v2.16a2.12,2.12,0,0,0-.62-.08,1.47,1.47,0,0,0-1.56,1.16,2.71,2.71,0,0,0,0,.51v3.72h-2.28Z"/><path class="cls-5" d="M529.42,438.32c0,1,0,1.74.06,2.36h-2l-.1-1h0a2.6,2.6,0,0,1-2.29,1.2c-1.49,0-2.58-.93-2.58-3.19v-4.31h2.29v4c0,1.06.35,1.71,1.14,1.71a1.24,1.24,0,0,0,1.22-1.29v-4.37h2.29Z"/><path class="cls-5" d="M536.72,440.5a5.55,5.55,0,0,1-2,.34,3.57,3.57,0,0,1-3.89-3.76c0-2.15,1.47-3.9,4.2-3.9a5.29,5.29,0,0,1,1.74.28l-.35,1.7a3.17,3.17,0,0,0-1.28-.23,2.06,2.06,0,0,0,0,4.11,3.26,3.26,0,0,0,1.31-.24Z"/><path class="cls-5" d="M540.72,431.35v2h1.64V435h-1.64v2.66c0,.88.21,1.29.9,1.29a3.23,3.23,0,0,0,.68-.06v1.72a4.39,4.39,0,0,1-1.48.21,2.39,2.39,0,0,1-1.71-.64,3.05,3.05,0,0,1-.63-2.18v-3h-1v-1.68h1V432Z"/><path class="cls-5" d="M546.09,431.3a1.14,1.14,0,0,1-1.23,1.14,1.15,1.15,0,1,1,0-2.29A1.14,1.14,0,0,1,546.09,431.3Zm-2.36,9.38v-7.34H546v7.34Z"/><path class="cls-5" d="M555,436.93a3.68,3.68,0,0,1-3.87,3.91,3.59,3.59,0,0,1-3.79-3.78,3.66,3.66,0,0,1,3.91-3.88A3.56,3.56,0,0,1,555,436.93Zm-5.31.07c0,1.26.53,2.21,1.5,2.21s1.46-.89,1.46-2.21c0-1.09-.42-2.2-1.46-2.2S549.73,435.92,549.73,437Z"/><path class="cls-5" d="M556.41,435.68c0-.91,0-1.69-.06-2.34h2l.11,1h0a2.68,2.68,0,0,1,2.27-1.17c1.5,0,2.62,1,2.62,3.15v4.35h-2.28v-4.07c0-.94-.33-1.59-1.15-1.59a1.23,1.23,0,0,0-1.16.86,1.62,1.62,0,0,0-.09.57v4.23h-2.28Z"/><rect class="cls-4" x="764.69" y="398.7" width="83.57" height="59.66"/><path class="cls-5" d="M785.91,419.26a6.48,6.48,0,0,1-2.6.45c-3.49,0-5.29-2.19-5.29-5.07,0-3.45,2.46-5.37,5.52-5.37a6,6,0,0,1,2.49.45l-.47,1.81a5,5,0,0,0-1.92-.37,3.32,3.32,0,0,0,0,6.64,5.68,5.68,0,0,0,1.9-.33Z"/><path class="cls-5" d="M787.11,414.62c0-1.08,0-1.78-.06-2.41h2l.07,1.35h.06a2.16,2.16,0,0,1,2-1.52,2.33,2.33,0,0,1,.48,0v2.16a2.5,2.5,0,0,0-.61-.07,1.47,1.47,0,0,0-1.56,1.15,2.67,2.67,0,0,0-.05.51v3.72h-2.28Z"/><path class="cls-5" d="M794.53,416.6c.08.95,1,1.4,2.07,1.4a6.67,6.67,0,0,0,2-.3l.3,1.54a7.26,7.26,0,0,1-2.66.47c-2.49,0-3.91-1.46-3.91-3.75a3.67,3.67,0,0,1,3.7-3.92c2.37,0,3.27,1.85,3.27,3.66a5.5,5.5,0,0,1-.07.9Zm2.69-1.56a1.32,1.32,0,0,0-1.29-1.48,1.5,1.5,0,0,0-1.41,1.48Z"/><path class="cls-5" d="M807.86,408.89v8.46c0,.83,0,1.7.06,2.19h-2l-.1-1.08h0a2.56,2.56,0,0,1-2.3,1.25c-1.74,0-3.13-1.49-3.13-3.77,0-2.47,1.53-3.9,3.28-3.9a2.25,2.25,0,0,1,1.94.83h0v-4Zm-2.28,6.42c0-.12,0-.28,0-.4a1.37,1.37,0,0,0-1.34-1.13c-1,0-1.57.93-1.57,2.09s.61,2,1.56,2a1.34,1.34,0,0,0,1.32-1.09,2.2,2.2,0,0,0,.06-.53Z"/><path class="cls-5" d="M812,410.17a1.14,1.14,0,0,1-1.22,1.14,1.15,1.15,0,1,1,0-2.3A1.14,1.14,0,0,1,812,410.17Zm-2.35,9.37v-7.33h2.28v7.33Z"/><path class="cls-5" d="M816.27,410.21v2h1.64v1.68h-1.64v2.65c0,.89.21,1.29.9,1.29a2.68,2.68,0,0,0,.68-.06v1.73a4.39,4.39,0,0,1-1.48.21,2.35,2.35,0,0,1-1.71-.65,3,3,0,0,1-.63-2.17v-3h-1v-1.68h1v-1.38Z"/><path class="cls-5" d="M824.81,410.21v2h1.63v1.68h-1.63v2.65c0,.89.21,1.29.9,1.29a2.6,2.6,0,0,0,.67-.06l0,1.73a4.39,4.39,0,0,1-1.48.21,2.33,2.33,0,0,1-1.71-.65,3,3,0,0,1-.64-2.17v-3h-1v-1.68h1v-1.38Z"/><path class="cls-5" d="M835,415.79a3.68,3.68,0,0,1-3.87,3.92,3.59,3.59,0,0,1-3.79-3.78,3.66,3.66,0,0,1,3.91-3.89A3.57,3.57,0,0,1,835,415.79Zm-5.31.08c0,1.26.53,2.2,1.5,2.2s1.46-.88,1.46-2.2c0-1.1-.42-2.21-1.46-2.21S829.65,414.79,829.65,415.87Z"/><path class="cls-5" d="M777.7,433.26a6.48,6.48,0,0,1-2.6.45c-3.49,0-5.29-2.19-5.29-5.07,0-3.45,2.46-5.37,5.52-5.37a6,6,0,0,1,2.49.45l-.47,1.81a5,5,0,0,0-1.92-.37,3.32,3.32,0,0,0,0,6.64,5.68,5.68,0,0,0,1.9-.33Z"/><path class="cls-5" d="M785.65,431.19c0,1,0,1.74.06,2.35h-2l-.11-1h0a2.63,2.63,0,0,1-2.3,1.2c-1.48,0-2.58-.93-2.58-3.2v-4.3H781v3.94c0,1.07.34,1.71,1.14,1.71a1.22,1.22,0,0,0,1.14-.79,1.32,1.32,0,0,0,.07-.5v-4.36h2.3Z"/><path class="cls-5" d="M787.45,431.55a4.53,4.53,0,0,0,2,.55c.69,0,1-.24,1-.61s-.22-.56-1.08-.84c-1.51-.51-2.1-1.34-2.08-2.19,0-1.38,1.17-2.42,3-2.42a5,5,0,0,1,2.07.42l-.4,1.58a3.6,3.6,0,0,0-1.59-.42c-.56,0-.87.22-.87.6s.28.52,1.18.84c1.4.48,2,1.18,2,2.26,0,1.37-1.08,2.39-3.18,2.39a5.16,5.16,0,0,1-2.37-.53Z"/><path class="cls-5" d="M796.48,424.21v2h1.64v1.68h-1.64v2.65c0,.89.21,1.29.9,1.29a2.68,2.68,0,0,0,.68-.06v1.73a4.39,4.39,0,0,1-1.48.21,2.35,2.35,0,0,1-1.71-.65,3,3,0,0,1-.63-2.17v-3h-1v-1.68h1v-1.38Z"/><path class="cls-5" d="M806.64,429.79a3.68,3.68,0,0,1-3.87,3.92,3.59,3.59,0,0,1-3.79-3.78,3.66,3.66,0,0,1,3.91-3.89A3.57,3.57,0,0,1,806.64,429.79Zm-5.31.08c0,1.26.53,2.2,1.5,2.2s1.46-.88,1.46-2.2c0-1.1-.42-2.21-1.46-2.21S801.33,428.79,801.33,429.87Z"/><path class="cls-5" d="M808,428.55c0-.92,0-1.7-.06-2.34h1.92l.1,1h0a2.53,2.53,0,0,1,2.22-1.16,2.08,2.08,0,0,1,2,1.25h0a3.15,3.15,0,0,1,.94-.89,2.68,2.68,0,0,1,1.4-.36c1.41,0,2.47,1,2.47,3.18v4.32h-2.22v-4c0-1.06-.34-1.68-1.08-1.68a1.12,1.12,0,0,0-1,.8,1.85,1.85,0,0,0-.09.58v4.29h-2.22v-4.11c0-.93-.33-1.56-1-1.56a1.15,1.15,0,0,0-1.06.83,1.42,1.42,0,0,0-.09.57v4.27H808Z"/><path class="cls-5" d="M822.64,430.6c.08.95,1,1.4,2.07,1.4a6.67,6.67,0,0,0,2-.3l.3,1.54a7.26,7.26,0,0,1-2.66.47c-2.49,0-3.91-1.46-3.91-3.75a3.67,3.67,0,0,1,3.7-3.92c2.37,0,3.27,1.85,3.27,3.66a5.5,5.5,0,0,1-.07.9Zm2.69-1.56a1.32,1.32,0,0,0-1.29-1.48,1.5,1.5,0,0,0-1.41,1.48Z"/><path class="cls-5" d="M828.84,428.62c0-1.08,0-1.78-.06-2.41h2l.07,1.35h.06a2.16,2.16,0,0,1,2-1.52,2.33,2.33,0,0,1,.48,0v2.16a2.5,2.5,0,0,0-.61-.07,1.47,1.47,0,0,0-1.56,1.15,2.67,2.67,0,0,0,0,.51v3.72h-2.28Z"/><path class="cls-5" d="M837.63,423.16a19.34,19.34,0,0,1-1.8,4l-1.38.14a23.39,23.39,0,0,0,1-4.05Z"/><path class="cls-5" d="M838.06,431.55a4.52,4.52,0,0,0,2,.55c.69,0,1-.24,1-.61s-.23-.56-1.08-.84c-1.52-.51-2.1-1.34-2.09-2.19,0-1.38,1.17-2.42,3-2.42a5,5,0,0,1,2.07.42l-.41,1.58a3.6,3.6,0,0,0-1.59-.42c-.55,0-.87.22-.87.6s.29.52,1.19.84c1.39.48,2,1.18,2,2.26,0,1.37-1.08,2.39-3.18,2.39a5.19,5.19,0,0,1-2.37-.53Z"/><path class="cls-5" d="M782.63,445l-.72,2.59h-2.37l3.09-10.11h3l3.14,10.11h-2.46l-.78-2.59Zm2.57-1.71-.63-2.15c-.18-.6-.36-1.35-.51-1.95h0c-.15.6-.3,1.37-.47,1.95l-.6,2.15Z"/><path class="cls-5" d="M795.3,447.36a5.51,5.51,0,0,1-2,.35,3.58,3.58,0,0,1-3.89-3.77c0-2.14,1.47-3.9,4.2-3.9a5.29,5.29,0,0,1,1.74.29L795,442a3.11,3.11,0,0,0-1.27-.22,2.06,2.06,0,0,0,0,4.11,3.26,3.26,0,0,0,1.31-.24Z"/><path class="cls-5" d="M801.94,447.36a5.51,5.51,0,0,1-2,.35,3.58,3.58,0,0,1-3.89-3.77c0-2.14,1.47-3.9,4.2-3.9a5.29,5.29,0,0,1,1.74.29l-.36,1.69a3.11,3.11,0,0,0-1.27-.22,2.06,2.06,0,0,0,0,4.11,3.26,3.26,0,0,0,1.31-.24Z"/><path class="cls-5" d="M810.32,443.79a3.68,3.68,0,0,1-3.87,3.92,3.59,3.59,0,0,1-3.79-3.78,3.66,3.66,0,0,1,3.91-3.89A3.57,3.57,0,0,1,810.32,443.79Zm-5.31.08c0,1.26.53,2.2,1.5,2.2s1.45-.88,1.45-2.2c0-1.1-.42-2.21-1.45-2.21S805,442.79,805,443.87Z"/><path class="cls-5" d="M818.62,445.19c0,1,0,1.74.06,2.35h-2l-.11-1h0a2.63,2.63,0,0,1-2.3,1.2c-1.48,0-2.58-.93-2.58-3.2v-4.3H814v3.94c0,1.07.34,1.71,1.14,1.71a1.22,1.22,0,0,0,1.14-.79,1.32,1.32,0,0,0,.07-.5v-4.36h2.3Z"/><path class="cls-5" d="M820.42,442.55c0-.92,0-1.7-.06-2.34h2l.11,1h0a2.7,2.7,0,0,1,2.27-1.17c1.5,0,2.62,1,2.62,3.15v4.35H825.1v-4.06c0-1-.33-1.59-1.15-1.59a1.22,1.22,0,0,0-1.16.85,1.62,1.62,0,0,0-.09.57v4.23h-2.28Z"/><path class="cls-5" d="M831.62,438.21v2h1.64v1.68h-1.64v2.65c0,.89.21,1.29.9,1.29a2.68,2.68,0,0,0,.68-.06v1.73a4.39,4.39,0,0,1-1.48.21,2.35,2.35,0,0,1-1.71-.65,3,3,0,0,1-.63-2.17v-3h-1v-1.68h1v-1.38Z"/><rect class="cls-4" x="764.69" y="145.35" width="83.57" height="59.66"/><path class="cls-5" d="M780.62,177.82l-.76,2.77h-2.53l3.29-10.79h3.21l3.34,10.79h-2.62l-.84-2.77Zm2.74-1.82-.67-2.29c-.19-.64-.39-1.44-.55-2.08h0c-.16.64-.32,1.45-.49,2.08L781,176Z"/><path class="cls-5" d="M796,180.29a7,7,0,0,1-2.77.48c-3.73,0-5.65-2.34-5.65-5.41,0-3.69,2.62-5.73,5.89-5.73a6.33,6.33,0,0,1,2.66.48l-.5,1.93a5.23,5.23,0,0,0-2.05-.4,3.55,3.55,0,0,0,0,7.09,6.16,6.16,0,0,0,2-.35Z"/><path class="cls-5" d="M799.9,169.8V174h4V169.8h2.43v10.79h-2.43v-4.51h-4v4.51h-2.45V169.8Z"/><path class="cls-5" d="M811.71,169.8h6.59v2h-4.14v2.47H818v2h-3.87v4.34h-2.45Z"/><path class="cls-5" d="M822.24,170.59a1.22,1.22,0,0,1-1.32,1.21,1.23,1.23,0,1,1,0-2.45A1.22,1.22,0,0,1,822.24,170.59Zm-2.52,10v-7.83h2.44v7.83Z"/><path class="cls-5" d="M824.05,169.23h2.44v11.36h-2.44Z"/><path class="cls-5" d="M830.3,177.45c.08,1,1.07,1.49,2.2,1.49a6.88,6.88,0,0,0,2.17-.32l.32,1.65a7.78,7.78,0,0,1-2.84.5c-2.65,0-4.18-1.56-4.18-4a3.92,3.92,0,0,1,4-4.17c2.53,0,3.49,2,3.49,3.9a5.89,5.89,0,0,1-.08,1Zm2.86-1.66a1.42,1.42,0,0,0-1.38-1.59,1.6,1.6,0,0,0-1.5,1.59Z"/><circle class="cls-6" cx="806.47" cy="290.12" r="43.2"/><rect class="cls-7" x="777.09" y="277.6" width="58.77" height="30.12"/><polygon class="cls-7" points="806.47 267.71 784.53 276.2 784.53 278.12 828.42 278.12 828.42 276.2 806.47 267.71"/><rect class="cls-8" x="784.53" y="284.89" width="4.57" height="16.56"/><rect class="cls-8" x="793.45" y="284.89" width="4.57" height="16.56"/><rect class="cls-8" x="814.93" y="284.89" width="4.57" height="16.56"/><rect class="cls-8" x="823.85" y="284.89" width="4.57" height="16.56"/><line class="cls-9" x1="784.53" y1="284.89" x2="828.42" y2="284.89"/><line class="cls-9" x1="784.53" y1="301.45" x2="828.42" y2="301.45"/><line class="cls-10" x1="786.82" y1="285.68" x2="786.82" y2="300.66"/><line class="cls-10" x1="795.74" y1="285.68" x2="795.74" y2="300.66"/><line class="cls-10" x1="817.21" y1="285.68" x2="817.21" y2="300.66"/><line class="cls-10" x1="826.13" y1="285.68" x2="826.13" y2="300.66"/><line class="cls-9" x1="780.92" y1="304.41" x2="832.03" y2="304.41"/><rect class="cls-8" x="801.83" y="296.13" width="9.29" height="5.31"/><line class="cls-9" x1="790.04" y1="277.6" x2="822.91" y2="277.6"/><circle class="cls-5" cx="806.47" cy="277.6" r="4.29"/><path class="cls-7" d="M807.78,279.46a1.6,1.6,0,0,1-1,.41v.36a.33.33,0,0,1-.32.34.33.33,0,0,1-.32-.34v-.38a2.36,2.36,0,0,1-1.17-.45.42.42,0,0,1-.19-.34.37.37,0,0,1,.37-.35.5.5,0,0,1,.26.1,1.76,1.76,0,0,0,1.11.38c.57,0,.89-.22.89-.63a.44.44,0,0,0-.24-.4,3.24,3.24,0,0,0-.85-.27c-1.05-.23-1.48-.57-1.48-1.3a1.1,1.1,0,0,1,.36-.84,1.61,1.61,0,0,1,.94-.42V275a.34.34,0,0,1,.32-.34.33.33,0,0,1,.32.34v.35a1.75,1.75,0,0,1,1,.37.36.36,0,0,1-.21.63.56.56,0,0,1-.27-.1,1.6,1.6,0,0,0-.83-.23c-.59,0-.84.26-.84.58a.43.43,0,0,0,.2.41,2.6,2.6,0,0,0,.73.23,3.13,3.13,0,0,1,1.25.49,1.06,1.06,0,0,1,.38.86A1.23,1.23,0,0,1,807.78,279.46Z"/><line class="cls-10" x1="806.47" y1="296.13" x2="806.47" y2="301.04"/><line class="cls-10" x1="770.01" y1="307.73" x2="842.94" y2="307.73"/><path class="cls-3" d="M778,341.07a19,19,0,0,1,3.15-.23,6,6,0,0,1,3.19.61,2.35,2.35,0,0,1,1.29,2.11,2.44,2.44,0,0,1-1.77,2.31v0a2.71,2.71,0,0,1,2.14,2.66,2.89,2.89,0,0,1-1.12,2.29c-.78.62-2.1,1-4.24,1a18.82,18.82,0,0,1-2.64-.16Zm2.41,4.13h.8c1.29,0,2-.53,2-1.33s-.62-1.25-1.73-1.25a7.21,7.21,0,0,0-1,.06Zm0,4.78a6.22,6.22,0,0,0,.95,0c1.1,0,2.08-.44,2.08-1.56s-1-1.52-2.19-1.52h-.84Z"/><path class="cls-3" d="M789.93,348.94l-.77,2.77h-2.53l3.3-10.79h3.2l3.34,10.79h-2.62l-.83-2.77Zm2.73-1.82-.67-2.29c-.19-.64-.38-1.44-.54-2.08h0c-.16.64-.32,1.46-.49,2.08l-.64,2.29Z"/><path class="cls-3" d="M797.72,351.71V340.92h2.85l2.24,4a31.18,31.18,0,0,1,1.76,3.69h0a40.05,40.05,0,0,1-.21-4.51v-3.14h2.24v10.79h-2.56l-2.3-4.16a39.68,39.68,0,0,1-1.88-3.81l0,0c.06,1.42.09,2.94.09,4.7v3.25Z"/><path class="cls-3" d="M808.78,340.92h2.41v4.77h0c.24-.41.5-.8.74-1.18l2.45-3.59h3l-3.57,4.6,3.76,6.19h-2.85l-2.64-4.66-.93,1.14v3.52h-2.41Z"/><path class="cls-3" d="M821.83,341.07a19.16,19.16,0,0,1,3.16-.23,6,6,0,0,1,3.18.61,2.36,2.36,0,0,1,1.3,2.11,2.44,2.44,0,0,1-1.78,2.31v0a2.71,2.71,0,0,1,2.14,2.66,2.86,2.86,0,0,1-1.12,2.29c-.78.62-2.09,1-4.24,1a18.94,18.94,0,0,1-2.64-.16Zm2.42,4.13h.8c1.28,0,2-.53,2-1.33s-.63-1.25-1.73-1.25a7.1,7.1,0,0,0-1,.06Zm0,4.78a6.15,6.15,0,0,0,.94,0c1.11,0,2.08-.44,2.08-1.56s-1-1.52-2.19-1.52h-.83Z"/><line class="cls-1" x1="669.23" y1="332.4" x2="669.23" y2="359.34"/><polygon class="cls-2" points="660.26 356.72 669.23 372.26 678.21 356.72 660.26 356.72"/><rect class="cls-4" x="626.08" y="277.08" width="83.57" height="59.66"/><path class="cls-5" d="M631.79,302.7a5.84,5.84,0,0,0,2.53.63c1,0,1.6-.44,1.6-1.1s-.48-1-1.69-1.42c-1.68-.59-2.77-1.52-2.77-3,0-1.72,1.43-3,3.82-3a6.19,6.19,0,0,1,2.58.51l-.51,1.84a4.92,4.92,0,0,0-2.12-.48c-1,0-1.47.45-1.47,1s.57.93,1.88,1.42c1.78.66,2.62,1.59,2.62,3,0,1.69-1.3,3.15-4.08,3.15a6.66,6.66,0,0,1-2.86-.63Z"/><path class="cls-5" d="M641.46,302.11c.07.95,1,1.4,2.07,1.4a6.65,6.65,0,0,0,2-.3l.3,1.54a7.24,7.24,0,0,1-2.65.47c-2.49,0-3.92-1.46-3.92-3.75a3.68,3.68,0,0,1,3.71-3.92c2.36,0,3.26,1.85,3.26,3.66a5.5,5.5,0,0,1-.07.9Zm2.68-1.56a1.32,1.32,0,0,0-1.29-1.48,1.5,1.5,0,0,0-1.41,1.48Z"/><path class="cls-5" d="M650.18,295.72v2h1.63v1.68h-1.63v2.65c0,.89.21,1.29.9,1.29a2.6,2.6,0,0,0,.67-.06l0,1.73a4.39,4.39,0,0,1-1.48.21,2.33,2.33,0,0,1-1.71-.65,3,3,0,0,1-.64-2.17v-3h-1v-1.68h1v-1.38Z"/><path class="cls-5" d="M655.83,295.72v2h1.64v1.68h-1.64v2.65c0,.89.21,1.29.9,1.29a2.68,2.68,0,0,0,.68-.06V305a4.39,4.39,0,0,1-1.48.21,2.35,2.35,0,0,1-1.71-.65,3,3,0,0,1-.63-2.17v-3h-1v-1.68h1v-1.38Z"/><path class="cls-5" d="M658.88,294.4h2.28v10.65h-2.28Z"/><path class="cls-5" d="M664.74,302.11c.07.95,1,1.4,2.07,1.4a6.55,6.55,0,0,0,2-.3l.3,1.54a7.2,7.2,0,0,1-2.65.47c-2.49,0-3.92-1.46-3.92-3.75a3.68,3.68,0,0,1,3.71-3.92c2.37,0,3.27,1.85,3.27,3.66a5.23,5.23,0,0,1-.08.9Zm2.68-1.56a1.32,1.32,0,0,0-1.29-1.48,1.5,1.5,0,0,0-1.41,1.48Z"/><path class="cls-5" d="M670.94,300.06c0-.92,0-1.7-.06-2.34h1.92l.1,1H673a2.53,2.53,0,0,1,2.22-1.16,2.08,2.08,0,0,1,2,1.25h0a3.15,3.15,0,0,1,.94-.89,2.68,2.68,0,0,1,1.4-.36c1.41,0,2.47,1,2.47,3.18v4.32H679.8v-4c0-1.06-.34-1.68-1.08-1.68a1.12,1.12,0,0,0-1.05.8,1.85,1.85,0,0,0-.09.58v4.29h-2.22v-4.11c0-.93-.33-1.56-1.05-1.56a1.15,1.15,0,0,0-1.06.83,1.42,1.42,0,0,0-.09.57v4.27h-2.22Z"/><path class="cls-5" d="M685.57,302.11c.08.95,1,1.4,2.07,1.4a6.67,6.67,0,0,0,2-.3l.3,1.54a7.26,7.26,0,0,1-2.66.47c-2.49,0-3.91-1.46-3.91-3.75a3.67,3.67,0,0,1,3.7-3.92c2.37,0,3.27,1.85,3.27,3.66a5.5,5.5,0,0,1-.07.9Zm2.69-1.56a1.32,1.32,0,0,0-1.29-1.48,1.5,1.5,0,0,0-1.41,1.48Z"/><path class="cls-5" d="M691.77,300.06c0-.92,0-1.7-.06-2.34h2l.11,1h0a2.7,2.7,0,0,1,2.27-1.17c1.5,0,2.62,1,2.62,3.15v4.35h-2.28V301c0-.95-.33-1.59-1.15-1.59a1.22,1.22,0,0,0-1.16.85,1.62,1.62,0,0,0-.09.57v4.23h-2.28Z"/><path class="cls-5" d="M703,295.72v2h1.64v1.68H703v2.65c0,.89.21,1.29.91,1.29a2.64,2.64,0,0,0,.67-.06V305a4.39,4.39,0,0,1-1.48.21,2.35,2.35,0,0,1-1.71-.65,3,3,0,0,1-.63-2.17v-3h-1v-1.68h1v-1.38Z"/><path class="cls-5" d="M634.5,308.94v10.11h-2.3V308.94Z"/><path class="cls-5" d="M636.38,314.06c0-.92,0-1.7-.06-2.34h2l.11,1h.05a2.66,2.66,0,0,1,2.26-1.17c1.5,0,2.62,1,2.62,3.15v4.35h-2.28V315c0-.95-.33-1.59-1.15-1.59a1.22,1.22,0,0,0-1.16.85,1.64,1.64,0,0,0-.08.57v4.23h-2.29Z"/><path class="cls-5" d="M645.09,317.06a4.53,4.53,0,0,0,2,.55c.69,0,1-.24,1-.61s-.22-.56-1.08-.84c-1.51-.51-2.1-1.34-2.08-2.19,0-1.38,1.17-2.42,3-2.42a5,5,0,0,1,2.07.42l-.4,1.58a3.61,3.61,0,0,0-1.6-.42c-.55,0-.86.22-.86.6s.28.52,1.18.84c1.39.48,2,1.18,2,2.26,0,1.37-1.08,2.39-3.18,2.39a5.16,5.16,0,0,1-2.37-.53Z"/><path class="cls-5" d="M654.12,309.72v2h1.64v1.68h-1.64v2.65c0,.89.21,1.29.9,1.29a2.68,2.68,0,0,0,.68-.06V319a4.39,4.39,0,0,1-1.48.21,2.35,2.35,0,0,1-1.71-.65,3,3,0,0,1-.63-2.17v-3h-1v-1.68h1v-1.38Z"/><path class="cls-5" d="M657.15,314.13c0-1.08,0-1.78-.06-2.41h2l.07,1.35h.06a2.16,2.16,0,0,1,2-1.52,2.33,2.33,0,0,1,.48,0v2.16a2.5,2.5,0,0,0-.61-.07,1.47,1.47,0,0,0-1.56,1.15,2.67,2.67,0,0,0-.05.51v3.72h-2.28Z"/><path class="cls-5" d="M669.66,316.7c0,1,0,1.74.06,2.35h-2l-.11-1h0a2.63,2.63,0,0,1-2.3,1.2c-1.48,0-2.58-.93-2.58-3.2v-4.3H665v3.94c0,1.07.34,1.71,1.14,1.71a1.22,1.22,0,0,0,1.14-.79,1.32,1.32,0,0,0,.07-.5v-4.36h2.3Z"/><path class="cls-5" d="M677,318.87a5.47,5.47,0,0,1-2,.35,3.57,3.57,0,0,1-3.88-3.77c0-2.14,1.47-3.9,4.2-3.9a5.29,5.29,0,0,1,1.74.29l-.36,1.69a3.16,3.16,0,0,0-1.28-.22,1.89,1.89,0,0,0-2,2.05,1.91,1.91,0,0,0,2,2.06,3.17,3.17,0,0,0,1.3-.24Z"/><path class="cls-5" d="M681,309.72v2h1.63v1.68H681v2.65c0,.89.21,1.29.9,1.29a2.64,2.64,0,0,0,.67-.06V319a4.3,4.3,0,0,1-1.48.21,2.37,2.37,0,0,1-1.71-.65,3,3,0,0,1-.63-2.17v-3h-1v-1.68h1v-1.38Z"/><path class="cls-5" d="M686.32,309.68a1.14,1.14,0,0,1-1.23,1.14,1.15,1.15,0,1,1,0-2.3A1.14,1.14,0,0,1,686.32,309.68ZM684,319.05v-7.33h2.28v7.33Z"/><path class="cls-5" d="M695.28,315.3a3.68,3.68,0,0,1-3.87,3.92,3.59,3.59,0,0,1-3.8-3.78,3.67,3.67,0,0,1,3.92-3.89A3.57,3.57,0,0,1,695.28,315.3Zm-5.31.08c0,1.26.52,2.2,1.5,2.2s1.45-.88,1.45-2.2c0-1.1-.42-2.21-1.45-2.21S690,314.3,690,315.38Z"/><path class="cls-5" d="M696.65,314.06c0-.92,0-1.7-.06-2.34h2l.1,1h.05a2.69,2.69,0,0,1,2.26-1.17c1.5,0,2.63,1,2.63,3.15v4.35h-2.28V315c0-.95-.33-1.59-1.16-1.59a1.21,1.21,0,0,0-1.15.85,1.62,1.62,0,0,0-.09.57v4.23h-2.28Z"/><circle class="cls-11" cx="667.86" cy="174.76" r="43.2"/><circle class="cls-12" cx="667.86" cy="174.77" r="12.16"/><circle class="cls-12" cx="646.02" cy="154.66" r="4.37"/><circle class="cls-12" cx="688.83" cy="196.17" r="4.37"/><circle class="cls-12" cx="646.18" cy="196.17" r="6.7"/><circle class="cls-12" cx="692.11" cy="150.53" r="3.04"/><polyline class="cls-13" points="646.87 153.79 667.85 174.76 692.96 149.65"/><polyline class="cls-13" points="689 196.01 667.76 174.76 646.35 196.17"/><circle class="cls-14" cx="667.86" cy="174.77" r="6.29"/><circle class="cls-15" cx="667.86" cy="174.77" r="16.33"/><path class="cls-3" d="M636.54,473.43h6.59v2H639v2.46h3.87v2H639v4.34h-2.45Z"/><path class="cls-3" d="M651.14,479.65h-4v2.56h4.44v2h-6.89V473.43h6.66v2h-4.21v2.24h4Z"/><path class="cls-3" d="M653.35,473.57a22.23,22.23,0,0,1,3.29-.22,7,7,0,0,1,4.42,1.15,4.78,4.78,0,0,1,1.83,4.07,5.48,5.48,0,0,1-1.8,4.37,7.75,7.75,0,0,1-5,1.39,20.92,20.92,0,0,1-2.76-.16Zm2.44,8.81a5.44,5.44,0,0,0,.85,0c2.21,0,3.65-1.2,3.65-3.77a3.09,3.09,0,0,0-3.39-3.43,4.91,4.91,0,0,0-1.11.1Z"/><path class="cls-3" d="M670.88,479.65h-4v2.56h4.44v2h-6.89V473.43h6.66v2h-4.21v2.24h4Z"/><path class="cls-3" d="M673.09,473.57a21.15,21.15,0,0,1,3.24-.22,5.46,5.46,0,0,1,3.49.85,2.73,2.73,0,0,1,1,2.25,2.87,2.87,0,0,1-1.91,2.66v.05a2.7,2.7,0,0,1,1.44,2c.34,1.22.68,2.63.88,3.05h-2.49a13.48,13.48,0,0,1-.76-2.52c-.28-1.34-.75-1.71-1.74-1.73h-.74v4.25h-2.41Zm2.41,4.64h1c1.22,0,1.94-.6,1.94-1.55s-.67-1.49-1.79-1.5a5.44,5.44,0,0,0-1.11.08Z"/><path class="cls-3" d="M685.34,481.45l-.77,2.77H682l3.3-10.79h3.2l3.35,10.79h-2.63l-.83-2.77Zm2.74-1.83-.67-2.29c-.2-.64-.39-1.44-.55-2.08h0c-.16.64-.32,1.46-.5,2.08l-.64,2.29Z"/><path class="cls-3" d="M693.13,473.43h2.45v8.74h4.29v2.05h-6.74Z"/><path class="cls-3" d="M615.46,490.57a21.2,21.2,0,0,1,3.25-.22,5.5,5.5,0,0,1,3.49.85,2.72,2.72,0,0,1,1,2.25,2.87,2.87,0,0,1-1.91,2.66v.05a2.68,2.68,0,0,1,1.44,2c.34,1.22.68,2.63.89,3.05h-2.5a13.77,13.77,0,0,1-.75-2.52c-.29-1.34-.76-1.71-1.75-1.73h-.73v4.25h-2.42Zm2.42,4.64h1c1.22,0,1.94-.6,1.94-1.55s-.67-1.49-1.79-1.5a5.32,5.32,0,0,0-1.1.08Z"/><path class="cls-3" d="M631.41,496.65h-4v2.56h4.44v2H625V490.43h6.66v2h-4.21v2.24h4Z"/><path class="cls-3" d="M633.56,498.7a6.16,6.16,0,0,0,2.7.68c1.12,0,1.72-.47,1.72-1.17s-.52-1.06-1.81-1.52c-1.79-.63-3-1.62-3-3.19,0-1.84,1.53-3.25,4.08-3.25a6.58,6.58,0,0,1,2.75.55l-.54,2a5.24,5.24,0,0,0-2.26-.51c-1.06,0-1.57.48-1.57,1s.61,1,2,1.52c1.91.71,2.8,1.7,2.8,3.22,0,1.81-1.39,3.36-4.35,3.36a7,7,0,0,1-3.06-.67Z"/><path class="cls-3" d="M648.46,496.65h-4v2.56h4.43v2H642V490.43h6.66v2h-4.21v2.24h4Z"/><path class="cls-3" d="M650.66,490.57a21.2,21.2,0,0,1,3.25-.22,5.5,5.5,0,0,1,3.49.85,2.72,2.72,0,0,1,1,2.25,2.87,2.87,0,0,1-1.9,2.66v.05a2.73,2.73,0,0,1,1.44,2,30.44,30.44,0,0,0,.88,3.05h-2.5a13.77,13.77,0,0,1-.75-2.52c-.29-1.34-.76-1.71-1.75-1.73h-.73v4.25h-2.42Zm2.42,4.64h1c1.21,0,1.93-.6,1.93-1.55s-.67-1.49-1.79-1.5a5.32,5.32,0,0,0-1.1.08Z"/><path class="cls-3" d="M662.46,501.22,659,490.43h2.67L663,495a39.57,39.57,0,0,1,1,3.86h0c.27-1.3.61-2.58,1-3.81l1.37-4.61h2.6l-3.64,10.79Z"/><path class="cls-3" d="M676.46,496.65h-4v2.56h4.43v2H670V490.43h6.66v2h-4.21v2.24h4Z"/><path class="cls-3" d="M681.82,490.57a19.22,19.22,0,0,1,3.15-.22,5.87,5.87,0,0,1,3.18.61,2.33,2.33,0,0,1,1.3,2.11,2.42,2.42,0,0,1-1.78,2.3v0a2.69,2.69,0,0,1,2.15,2.65,2.87,2.87,0,0,1-1.12,2.29c-.78.63-2.1,1-4.24,1a18.82,18.82,0,0,1-2.64-.16Zm2.41,4.13h.8c1.28,0,2-.53,2-1.33s-.62-1.25-1.73-1.25a6.8,6.8,0,0,0-1,.07Zm0,4.79a8.28,8.28,0,0,0,.95,0c1.1,0,2.08-.43,2.08-1.55s-1-1.52-2.19-1.52h-.84Z"/><path class="cls-3" d="M693.71,498.45l-.76,2.77h-2.53l3.29-10.79h3.21l3.34,10.79h-2.62l-.84-2.77Zm2.74-1.83-.67-2.29c-.19-.64-.38-1.44-.54-2.08h0c-.16.64-.32,1.46-.49,2.08l-.64,2.29Z"/><path class="cls-3" d="M701.51,501.22V490.43h2.85l2.24,3.95a31.32,31.32,0,0,1,1.76,3.7h0a40.17,40.17,0,0,1-.21-4.51v-3.14h2.24v10.79h-2.56l-2.31-4.17a40.62,40.62,0,0,1-1.87-3.8h-.05c.07,1.43.1,2.95.1,4.71v3.25Z"/><path class="cls-3" d="M712.57,490.43H715v4.77h0c.24-.42.5-.8.74-1.19l2.45-3.58h3L717.64,495l3.76,6.2h-2.85l-2.64-4.66-.93,1.13v3.53h-2.41Z"/><circle class="cls-16" cx="667.87" cy="422.56" r="43.2"/><rect class="cls-12" x="640.18" y="434.23" width="55.38" height="3.93"/><rect class="cls-12" x="643.78" y="430.31" width="48.18" height="3.93"/><rect class="cls-12" x="644.65" y="413.26" width="4.95" height="17.05"/><rect class="cls-12" x="654.25" y="413.26" width="4.95" height="17.05"/><rect class="cls-12" x="643.78" y="428.98" width="6.7" height="1.33"/><rect class="cls-12" x="653.38" y="428.98" width="6.7" height="1.33"/><rect class="cls-12" x="643.78" y="413.26" width="6.7" height="1.33"/><rect class="cls-12" x="653.38" y="413.26" width="6.7" height="1.33"/><rect class="cls-12" x="676.53" y="413.26" width="4.95" height="17.05"/><rect class="cls-12" x="686.13" y="413.26" width="4.95" height="17.05"/><rect class="cls-12" x="675.66" y="428.98" width="6.7" height="1.33"/><rect class="cls-12" x="685.26" y="428.98" width="6.7" height="1.33"/><rect class="cls-12" x="675.66" y="413.26" width="6.7" height="1.33"/><rect class="cls-12" x="685.26" y="413.26" width="6.7" height="1.33"/><line class="cls-17" x1="653.38" y1="434.23" x2="682.36" y2="434.23"/><line class="cls-17" x1="647.13" y1="415.88" x2="647.13" y2="427.68"/><line class="cls-17" x1="656.73" y1="415.88" x2="656.73" y2="427.68"/><line class="cls-17" x1="679.01" y1="415.88" x2="679.01" y2="427.68"/><line class="cls-17" x1="688.61" y1="415.88" x2="688.61" y2="427.68"/><polygon class="cls-12" points="667.87 400.12 640.18 410.84 640.18 413.26 695.56 413.26 695.56 410.84 667.87 400.12"/><circle class="cls-16" cx="667.87" cy="406.69" r="4.29"/><path class="cls-12" d="M669.17,408.54a1.54,1.54,0,0,1-1,.41v.37a.33.33,0,0,1-.32.34.34.34,0,0,1-.32-.34v-.38a2.5,2.5,0,0,1-1.17-.45.45.45,0,0,1-.19-.35.36.36,0,0,1,.37-.34.41.41,0,0,1,.26.1,1.75,1.75,0,0,0,1.11.37c.57,0,.89-.22.89-.62a.44.44,0,0,0-.23-.4,2.94,2.94,0,0,0-.85-.28c-1.05-.22-1.49-.57-1.49-1.3a1.16,1.16,0,0,1,.36-.84,1.56,1.56,0,0,1,.94-.41v-.36a.33.33,0,0,1,.32-.34.33.33,0,0,1,.32.34v.35a1.9,1.9,0,0,1,1,.36.36.36,0,0,1-.21.63.57.57,0,0,1-.28-.09,1.49,1.49,0,0,0-.83-.24c-.59,0-.84.26-.84.58a.47.47,0,0,0,.2.42,3.15,3.15,0,0,0,.73.23,3,3,0,0,1,1.25.49,1,1,0,0,1,.38.86A1.19,1.19,0,0,1,669.17,408.54Z"/><rect class="cls-12" x="663.6" y="421.78" width="8.53" height="8.53"/><line class="cls-17" x1="667.87" y1="421.78" x2="667.87" y2="430.31"/><path class="cls-12" d="M671.53,418.13V420H664.2v-1.84h7.33m.6-.6H663.6v3h8.53v-3Z"/><line class="cls-13" x1="634.99" y1="438.16" x2="700.74" y2="438.16"/><path class="cls-3" d="M502.38,588a19.85,19.85,0,0,1,3.3-.22,5.19,5.19,0,0,1,3.3.86,3.17,3.17,0,0,1,1.15,2.5,3.46,3.46,0,0,1-1,2.56,5,5,0,0,1-3.51,1.13,6.57,6.57,0,0,1-.83,0v3.85h-2.42Zm2.42,4.9a3.61,3.61,0,0,0,.81.06c1.3,0,2.1-.65,2.1-1.76s-.69-1.58-1.9-1.58a4.1,4.1,0,0,0-1,.09Z"/><path class="cls-3" d="M521.48,593.17c0,3.54-2.15,5.68-5.3,5.68s-5.08-2.42-5.08-5.49c0-3.23,2.07-5.65,5.25-5.65S521.48,590.19,521.48,593.17Zm-7.8.14c0,2.11,1,3.6,2.63,3.6s2.59-1.57,2.59-3.66-.93-3.6-2.61-3.6S513.68,591.21,513.68,593.31Z"/><path class="cls-3" d="M524.51,598.67,522,587.89h2.61l.82,4.43c.24,1.3.46,2.69.64,3.78h0c.18-1.17.43-2.47.7-3.8l.92-4.41h2.59l.86,4.54c.25,1.27.42,2.42.58,3.62h0c.16-1.2.4-2.47.63-3.75l.88-4.41h2.48l-2.79,10.78h-2.64l-.91-4.64c-.21-1.09-.38-2.09-.51-3.33h0c-.2,1.22-.37,2.24-.63,3.33l-1,4.64Z"/><path class="cls-3" d="M543.31,594.11h-4v2.56h4.44v2h-6.89V587.89h6.66v2h-4.21v2.24h4Z"/><path class="cls-3" d="M545.51,588a21.39,21.39,0,0,1,3.25-.22,5.57,5.57,0,0,1,3.49.84,2.76,2.76,0,0,1,1,2.26,2.86,2.86,0,0,1-1.9,2.66v0a2.7,2.7,0,0,1,1.44,2c.34,1.22.67,2.63.88,3h-2.5a14.44,14.44,0,0,1-.75-2.51c-.29-1.34-.75-1.71-1.74-1.73h-.74v4.24h-2.42Zm2.42,4.64h1c1.22,0,1.94-.61,1.94-1.55s-.67-1.49-1.79-1.51a6.34,6.34,0,0,0-1.11.08Z"/><path class="cls-3" d="M499.89,615.37a7,7,0,0,1-2.77.48c-3.73,0-5.65-2.34-5.65-5.41,0-3.68,2.63-5.73,5.89-5.73a6.42,6.42,0,0,1,2.66.48l-.5,1.94a5.19,5.19,0,0,0-2-.4,3.55,3.55,0,0,0,0,7.09,5.85,5.85,0,0,0,2-.36Z"/><path class="cls-3" d="M511,610.17c0,3.54-2.14,5.68-5.29,5.68s-5.08-2.42-5.08-5.49c0-3.23,2.07-5.65,5.25-5.65S511,607.19,511,610.17Zm-7.79.14c0,2.11,1,3.6,2.62,3.6s2.6-1.57,2.6-3.66-.93-3.6-2.61-3.6S503.17,608.21,503.17,610.31Z"/><path class="cls-3" d="M521.62,611.54c0-1.29-.1-2.86-.1-4.43h0c-.33,1.38-.78,2.91-1.2,4.18L519,615.5h-1.91l-1.15-4.16c-.35-1.28-.72-2.82-1-4.23h0c-.06,1.46-.11,3.12-.19,4.47l-.19,4.09h-2.26l.69-10.78h3.25l1.06,3.6c.33,1.23.67,2.59.91,3.85h.05c.3-1.24.67-2.67,1-3.87l1.15-3.58h3.19l.59,10.78h-2.38Z"/><path class="cls-3" d="M526.06,605a19.85,19.85,0,0,1,3.3-.22,5.14,5.14,0,0,1,3.29.86,3.15,3.15,0,0,1,1.16,2.5,3.46,3.46,0,0,1-1,2.56,5,5,0,0,1-3.5,1.13,6.57,6.57,0,0,1-.83,0v3.85h-2.42Zm2.42,4.9a3.55,3.55,0,0,0,.81.06c1.3,0,2.1-.65,2.1-1.76s-.69-1.58-1.91-1.58a4.06,4.06,0,0,0-1,.09Z"/><path class="cls-3" d="M537,612.91l-.77,2.76H533.7l3.3-10.78h3.2l3.35,10.78h-2.63l-.83-2.76Zm2.74-1.83-.67-2.29c-.2-.64-.39-1.44-.55-2.08h0c-.16.64-.32,1.46-.5,2.08l-.64,2.29Z"/><path class="cls-3" d="M544.8,615.67V604.89h2.84l2.25,4a31.32,31.32,0,0,1,1.76,3.7h0a40.33,40.33,0,0,1-.2-4.52v-3.13h2.24v10.78h-2.56l-2.31-4.16A39.63,39.63,0,0,1,547,607.7l0,0c.06,1.42.1,2.94.1,4.7v3.25Z"/><path class="cls-3" d="M558.26,615.67v-4.41l-3.4-6.37h2.78l1.1,2.59c.34.78.56,1.36.84,2.06h0c.24-.67.5-1.29.81-2.06l1.09-2.59h2.74l-3.55,6.29v4.49Z"/><circle class="cls-18" cx="527.77" cy="536.8" r="43.2"/><line class="cls-19" x1="499.84" y1="564.26" x2="555.69" y2="564.26"/><polyline class="cls-19" points="540.42 552.17 513.17 564.26 521.57 512.06 533.96 512.06 542.36 564.26 515.11 552.17"/><polygon class="cls-19" points="545.57 527.43 509.96 527.43 521.57 512.06 533.96 512.06 545.57 527.43"/><polygon class="cls-19" points="547.97 552.17 507.56 552.17 517.59 536.8 537.95 536.8 547.97 552.17"/><line class="cls-19" x1="507.56" y1="552.17" x2="507.56" y2="555.76"/><line class="cls-19" x1="547.97" y1="552.17" x2="547.97" y2="555.76"/><line class="cls-19" x1="509.96" y1="527.43" x2="509.96" y2="531.03"/><line class="cls-19" x1="545.57" y1="527.43" x2="545.57" y2="531.03"/><line class="cls-19" x1="517.59" y1="536.8" x2="536.44" y2="527.43"/><line class="cls-19" x1="537.82" y1="536.8" x2="518.97" y2="527.43"/><rect class="cls-12" x="517.35" y="536.68" width="20.73" height="2.22"/><rect class="cls-12" x="517.35" y="536.68" width="20.73" height="2.22"/><rect class="cls-12" x="521.52" y="512.04" width="12.67" height="2.22"/><line class="cls-15" x1="507.77" y1="530.6" x2="488.9" y2="530.6"/><line class="cls-15" x1="505.37" y1="555.89" x2="492.5" y2="555.89"/><line class="cls-15" x1="547.7" y1="530.6" x2="566.57" y2="530.6"/><line class="cls-15" x1="550.1" y1="555.89" x2="562.97" y2="555.89"/><line class="cls-20" x1="445.5" y1="98.47" x2="445.5" y2="618.87"/><path class="cls-3" d="M163.4,227.74h-2.9v-2.05h8.29v2.05h-2.94v8.74H163.4Z"/><path class="cls-3" d="M177.71,236.18a7,7,0,0,1-2.77.48c-3.73,0-5.65-2.34-5.65-5.41,0-3.68,2.62-5.73,5.89-5.73a6.24,6.24,0,0,1,2.65.48l-.49,1.93a5.46,5.46,0,0,0-2.05-.4,3.55,3.55,0,0,0,0,7.09,6.16,6.16,0,0,0,2-.35Z"/><path class="cls-3" d="M181.63,225.69v4.15h4v-4.15h2.43v10.79h-2.43V232h-4v4.51h-2.45V225.69Z"/><path class="cls-3" d="M199.85,231.92h-4v2.56h4.44v2h-6.88V225.69h6.65v2h-4.21v2.24h4Z"/><path class="cls-3" d="M202.06,225.84a19.49,19.49,0,0,1,3.29-.23,5.15,5.15,0,0,1,3.3.87A3.14,3.14,0,0,1,209.8,229a3.47,3.47,0,0,1-1,2.57,6.16,6.16,0,0,1-4.34,1.08v3.86h-2.41Zm2.41,4.89a3.61,3.61,0,0,0,.82.07c1.29,0,2.1-.66,2.1-1.76s-.69-1.59-1.91-1.59a4,4,0,0,0-1,.1Z"/><path class="cls-3" d="M211.1,236.48V225.69H214l2.24,4a31.18,31.18,0,0,1,1.76,3.69H218a40.05,40.05,0,0,1-.21-4.51v-3.14H220v10.79h-2.56l-2.31-4.16a40.81,40.81,0,0,1-1.87-3.81l0,0c.07,1.42.1,2.94.1,4.7v3.25Z"/><path class="cls-3" d="M224.57,237.12l3.42-11.6h1.62l-3.42,11.6Z"/><path class="cls-3" d="M233.9,225.69h6.59v2h-4.14v2.47h3.87v2h-3.87v4.34H233.9Z"/><path class="cls-3" d="M243.84,233.34c.08,1,1.08,1.49,2.21,1.49a6.82,6.82,0,0,0,2.16-.32l.32,1.65a7.69,7.69,0,0,1-2.83.5c-2.66,0-4.18-1.56-4.18-4a3.92,3.92,0,0,1,4-4.18c2.52,0,3.49,2,3.49,3.9a5.89,5.89,0,0,1-.08,1Zm2.87-1.66a1.42,1.42,0,0,0-1.38-1.59,1.6,1.6,0,0,0-1.5,1.59Z"/><path class="cls-3" d="M258.06,225.12v9c0,.88,0,1.81.06,2.34H256l-.11-1.15h0a2.74,2.74,0,0,1-2.45,1.33c-1.86,0-3.35-1.59-3.35-4,0-2.64,1.64-4.16,3.51-4.16a2.36,2.36,0,0,1,2.06.88h0v-4.24ZM255.63,232a3,3,0,0,0,0-.43,1.46,1.46,0,0,0-1.42-1.21c-1.11,0-1.68,1-1.68,2.23s.65,2.16,1.66,2.16a1.42,1.42,0,0,0,1.41-1.17,2,2,0,0,0,.07-.56Z"/><path class="cls-3" d="M262.53,233.71l-.77,2.77h-2.53l3.3-10.79h3.2l3.34,10.79h-2.62l-.84-2.77Zm2.73-1.82-.67-2.29c-.19-.64-.38-1.44-.54-2.08h0c-.16.64-.32,1.45-.49,2.08l-.64,2.29Z"/><path class="cls-3" d="M277.88,236.18a7,7,0,0,1-2.77.48c-3.73,0-5.65-2.34-5.65-5.41,0-3.68,2.63-5.73,5.89-5.73A6.25,6.25,0,0,1,278,226l-.5,1.93a5.38,5.38,0,0,0-2.05-.4,3.55,3.55,0,0,0,0,7.09,6.12,6.12,0,0,0,2-.35Z"/><path class="cls-3" d="M281.8,225.69v4.15h4v-4.15h2.43v10.79h-2.43V232h-4v4.51h-2.45V225.69Z"/><path class="cls-3" d="M172.68,250.71l-.77,2.77h-2.53l3.3-10.79h3.2l3.35,10.79H176.6l-.83-2.77Zm2.74-1.82-.67-2.29c-.2-.64-.39-1.44-.55-2.08h0c-.16.64-.32,1.45-.5,2.08l-.64,2.29Z"/><path class="cls-3" d="M188,253.18a7,7,0,0,1-2.77.48c-3.73,0-5.65-2.34-5.65-5.41,0-3.68,2.62-5.73,5.89-5.73a6.24,6.24,0,0,1,2.65.48l-.49,1.93a5.46,5.46,0,0,0-2-.4,3.55,3.55,0,0,0,0,7.09,6.18,6.18,0,0,0,2-.35Z"/><path class="cls-3" d="M192,242.69v4.15h4v-4.15h2.44v10.79H196V249h-4v4.51h-2.45V242.69Z"/><path class="cls-3" d="M213.64,248c0,3.54-2.15,5.69-5.3,5.69s-5.07-2.42-5.07-5.49c0-3.24,2.06-5.65,5.25-5.65S213.64,245,213.64,248Zm-7.8.15c0,2.11,1,3.6,2.63,3.6s2.59-1.57,2.59-3.67c0-1.93-.93-3.6-2.61-3.6S205.84,246,205.84,248.12Z"/><path class="cls-3" d="M215.25,242.84a19.58,19.58,0,0,1,3.29-.23,5.15,5.15,0,0,1,3.3.87A3.14,3.14,0,0,1,223,246a3.47,3.47,0,0,1-1,2.57,6.13,6.13,0,0,1-4.33,1.08v3.86h-2.42Zm2.42,4.89a3.46,3.46,0,0,0,.81.07c1.3,0,2.1-.66,2.1-1.76s-.69-1.59-1.91-1.59a3.92,3.92,0,0,0-1,.1Z"/><path class="cls-3" d="M230.71,248.92h-4v2.56h4.43v2h-6.88V242.69H231v2h-4.21v2.24h4Z"/><path class="cls-3" d="M232.91,242.84a21,21,0,0,1,3.25-.23,5.5,5.5,0,0,1,3.49.85,2.74,2.74,0,0,1,1,2.26,2.87,2.87,0,0,1-1.9,2.66v0a2.77,2.77,0,0,1,1.44,2,30,30,0,0,0,.88,3h-2.5a13.56,13.56,0,0,1-.75-2.51c-.29-1.35-.75-1.71-1.75-1.73h-.73v4.24h-2.42Zm2.42,4.64h1c1.21,0,1.93-.61,1.93-1.55s-.67-1.49-1.79-1.51a6.19,6.19,0,0,0-1.1.08Z"/><path class="cls-3" d="M245.17,250.71l-.77,2.77h-2.53l3.3-10.79h3.2l3.34,10.79h-2.62l-.84-2.77Zm2.73-1.82-.67-2.29c-.19-.64-.38-1.44-.54-2.08h0c-.16.64-.32,1.45-.49,2.08l-.64,2.29Z"/><path class="cls-3" d="M254.13,244.74h-2.9v-2.05h8.29v2.05h-2.94v8.74h-2.45Z"/><path class="cls-3" d="M270.43,248c0,3.54-2.15,5.69-5.3,5.69s-5.07-2.42-5.07-5.49c0-3.24,2.06-5.65,5.25-5.65S270.43,245,270.43,248Zm-7.8.15c0,2.11,1,3.6,2.63,3.6s2.59-1.57,2.59-3.67c0-1.93-.93-3.6-2.61-3.6S262.63,246,262.63,248.12Z"/><path class="cls-3" d="M272,242.84a21,21,0,0,1,3.25-.23,5.5,5.5,0,0,1,3.49.85,2.74,2.74,0,0,1,1,2.26,2.89,2.89,0,0,1-1.9,2.66v0a2.77,2.77,0,0,1,1.44,2,30,30,0,0,0,.88,3h-2.5a13.56,13.56,0,0,1-.75-2.51c-.29-1.35-.76-1.71-1.75-1.73h-.73v4.24H272Zm2.42,4.64h1c1.21,0,1.93-.61,1.93-1.55s-.67-1.49-1.79-1.51a6.19,6.19,0,0,0-1.1.08Z"/><path class="cls-3" d="M606.48,227.74h-2.9v-2.05h8.29v2.05h-3v8.74h-2.44Z"/><path class="cls-3" d="M620.78,236.18a6.94,6.94,0,0,1-2.77.48c-3.72,0-5.65-2.34-5.65-5.41,0-3.68,2.63-5.73,5.89-5.73a6.25,6.25,0,0,1,2.66.48l-.49,1.93a5.46,5.46,0,0,0-2-.4,3.55,3.55,0,0,0,0,7.09,6.23,6.23,0,0,0,2-.35Z"/><path class="cls-3" d="M624.71,225.69v4.15h4v-4.15h2.44v10.79h-2.44V232h-4v4.51h-2.45V225.69Z"/><path class="cls-3" d="M642.93,231.92h-4v2.56h4.43v2h-6.88V225.69h6.66v2H639v2.24h4Z"/><path class="cls-3" d="M645.13,225.84a19.62,19.62,0,0,1,3.3-.23,5.17,5.17,0,0,1,3.3.87,3.14,3.14,0,0,1,1.15,2.49,3.47,3.47,0,0,1-1,2.57,5,5,0,0,1-3.51,1.13,5,5,0,0,1-.83,0v3.86h-2.42Zm2.42,4.89a3.56,3.56,0,0,0,.82.07c1.29,0,2.09-.66,2.09-1.76s-.69-1.59-1.9-1.59a4,4,0,0,0-1,.1Z"/><path class="cls-3" d="M654.17,236.48V225.69H657l2.24,4a31.18,31.18,0,0,1,1.76,3.69h.05a40.05,40.05,0,0,1-.21-4.51v-3.14h2.25v10.79h-2.57l-2.3-4.16a38.47,38.47,0,0,1-1.87-3.81l0,0c.06,1.42.09,2.94.09,4.7v3.25Z"/><path class="cls-3" d="M667.64,237.12l3.43-11.6h1.62l-3.43,11.6Z"/><path class="cls-3" d="M677,225.69h6.6v2h-4.15v2.47h3.87v2h-3.87v4.34H677Z"/><path class="cls-3" d="M686.92,233.34c.08,1,1.07,1.49,2.21,1.49a6.86,6.86,0,0,0,2.16-.32l.32,1.65a7.73,7.73,0,0,1-2.83.5c-2.66,0-4.18-1.56-4.18-4a3.92,3.92,0,0,1,3.95-4.18c2.53,0,3.49,2,3.49,3.9a5.89,5.89,0,0,1-.08,1Zm2.86-1.66a1.41,1.41,0,0,0-1.37-1.59,1.6,1.6,0,0,0-1.51,1.59Z"/><path class="cls-3" d="M701.13,225.12v9c0,.88,0,1.81.07,2.34H699l-.11-1.15h0a2.72,2.72,0,0,1-2.44,1.33c-1.86,0-3.35-1.59-3.35-4,0-2.64,1.63-4.16,3.5-4.16a2.36,2.36,0,0,1,2.07.88h0v-4.24ZM698.7,232a3,3,0,0,0,0-.43,1.46,1.46,0,0,0-1.42-1.21c-1.11,0-1.69,1-1.69,2.23s.66,2.16,1.67,2.16a1.43,1.43,0,0,0,1.41-1.17,2,2,0,0,0,.06-.56Z"/><path class="cls-3" d="M705.6,233.71l-.77,2.77H702.3l3.3-10.79h3.2l3.35,10.79h-2.63l-.83-2.77Zm2.74-1.82-.67-2.29c-.2-.64-.39-1.44-.55-2.08h0c-.16.64-.32,1.45-.5,2.08l-.64,2.29Z"/><path class="cls-3" d="M721,236.18a7,7,0,0,1-2.77.48c-3.73,0-5.65-2.34-5.65-5.41,0-3.68,2.62-5.73,5.89-5.73a6.24,6.24,0,0,1,2.65.48l-.49,1.93a5.46,5.46,0,0,0-2.05-.4,3.55,3.55,0,0,0,0,7.09,6.16,6.16,0,0,0,2-.35Z"/><path class="cls-3" d="M724.88,225.69v4.15h4v-4.15h2.44v10.79h-2.44V232h-4v4.51h-2.45V225.69Z"/><path class="cls-3" d="M615.76,250.71l-.77,2.77h-2.53l3.3-10.79H619l3.34,10.79h-2.62l-.83-2.77Zm2.73-1.82-.67-2.29c-.19-.64-.38-1.44-.54-2.08h0c-.16.64-.32,1.45-.5,2.08l-.64,2.29Z"/><path class="cls-3" d="M631.11,253.18a6.94,6.94,0,0,1-2.77.48c-3.73,0-5.65-2.34-5.65-5.41,0-3.68,2.63-5.73,5.89-5.73a6.25,6.25,0,0,1,2.66.48l-.5,1.93a5.38,5.38,0,0,0-2-.4,3.55,3.55,0,0,0,0,7.09,6.12,6.12,0,0,0,2-.35Z"/><path class="cls-3" d="M635,242.69v4.15h4v-4.15h2.43v10.79h-2.43V249h-4v4.51h-2.45V242.69Z"/><path class="cls-3" d="M656.72,248c0,3.54-2.15,5.69-5.3,5.69s-5.08-2.42-5.08-5.49c0-3.24,2.07-5.65,5.25-5.65S656.72,245,656.72,248Zm-7.8.15c0,2.11,1,3.6,2.63,3.6s2.59-1.57,2.59-3.67c0-1.93-.93-3.6-2.61-3.6S648.92,246,648.92,248.12Z"/><path class="cls-3" d="M658.32,242.84a19.71,19.71,0,0,1,3.3-.23,5.15,5.15,0,0,1,3.3.87,3.14,3.14,0,0,1,1.15,2.49,3.47,3.47,0,0,1-1,2.57,6.16,6.16,0,0,1-4.34,1.08v3.86h-2.42Zm2.42,4.89a3.61,3.61,0,0,0,.82.07c1.29,0,2.09-.66,2.09-1.76s-.68-1.59-1.9-1.59a4,4,0,0,0-1,.1Z"/><path class="cls-3" d="M673.78,248.92h-4v2.56h4.43v2h-6.88V242.69H674v2h-4.2v2.24h4Z"/><path class="cls-3" d="M676,242.84a21,21,0,0,1,3.25-.23,5.45,5.45,0,0,1,3.48.85,2.72,2.72,0,0,1,1,2.26,2.88,2.88,0,0,1-1.91,2.66v0a2.74,2.74,0,0,1,1.44,2c.34,1.22.68,2.62.88,3h-2.49a13.28,13.28,0,0,1-.76-2.51c-.28-1.35-.75-1.71-1.74-1.73h-.74v4.24H676Zm2.41,4.64h1c1.22,0,1.94-.61,1.94-1.55s-.67-1.49-1.79-1.51a6.44,6.44,0,0,0-1.11.08Z"/><path class="cls-3" d="M688.24,250.71l-.77,2.77h-2.53l3.3-10.79h3.2l3.35,10.79h-2.63l-.83-2.77Zm2.74-1.82-.67-2.29c-.2-.64-.39-1.44-.55-2.08h0c-.16.64-.32,1.45-.5,2.08l-.64,2.29Z"/><path class="cls-3" d="M697.21,244.74h-2.9v-2.05h8.29v2.05h-3v8.74h-2.44Z"/><path class="cls-3" d="M713.51,248c0,3.54-2.15,5.69-5.3,5.69s-5.08-2.42-5.08-5.49c0-3.24,2.07-5.65,5.25-5.65S713.51,245,713.51,248Zm-7.8.15c0,2.11,1,3.6,2.63,3.6s2.59-1.57,2.59-3.67c0-1.93-.93-3.6-2.61-3.6S705.71,246,705.71,248.12Z"/><path class="cls-3" d="M715.12,242.84a21,21,0,0,1,3.24-.23,5.5,5.5,0,0,1,3.49.85,2.75,2.75,0,0,1,1,2.26,2.88,2.88,0,0,1-1.91,2.66v0a2.74,2.74,0,0,1,1.44,2c.34,1.22.67,2.62.88,3h-2.49A13.28,13.28,0,0,1,720,251c-.29-1.35-.75-1.71-1.74-1.73h-.74v4.24h-2.41Zm2.41,4.64h1c1.22,0,1.94-.61,1.94-1.55s-.67-1.49-1.79-1.51a6.34,6.34,0,0,0-1.11.08Z"/></g></svg>